<svg width="25" height="25" viewBox="0 0 25 25" fill="none" xmlns="http://www.w3.org/2000/svg">
<g clip-path="url(#clip0_7093_23618)">
<path d="M17.273 0.262011C17.222 0.205011 15.3845 0.284511 13.7855 2.02001C12.1865 3.75401 12.4325 5.74301 12.4685 5.79401C12.5045 5.84501 14.7485 5.92451 16.181 3.90701C17.6135 1.88951 17.324 0.320511 17.273 0.262011ZM22.244 17.8615C22.172 17.7175 18.7565 16.0105 19.0745 12.7285C19.3925 9.44501 21.587 8.54501 21.6215 8.44751C21.656 8.35001 20.726 7.26251 19.7405 6.71201C19.0169 6.32389 18.2161 6.10152 17.396 6.06101C17.234 6.05651 16.6715 5.91851 15.515 6.23501C14.753 6.44351 13.0355 7.11851 12.563 7.14551C12.089 7.17251 10.679 6.36251 9.1625 6.14801C8.192 5.96051 7.163 6.34451 6.4265 6.64001C5.6915 6.93401 4.2935 7.77101 3.3155 9.99551C2.3375 12.2185 2.849 15.7405 3.215 16.8355C3.581 17.929 4.1525 19.7215 5.1245 21.0295C5.9885 22.5055 7.1345 23.53 7.613 23.878C8.0915 24.226 9.4415 24.457 10.3775 23.9785C11.1305 23.5165 12.4895 23.251 13.0265 23.2705C13.562 23.29 14.618 23.5015 15.6995 24.079C16.556 24.3745 17.366 24.2515 18.1775 23.9215C18.989 23.59 20.1635 22.333 21.5345 19.7845C22.055 18.5995 22.292 17.959 22.244 17.8615Z" fill="black"/>
<path d="M17.273 0.262011C17.222 0.205011 15.3845 0.284511 13.7855 2.02001C12.1865 3.75401 12.4325 5.74301 12.4685 5.79401C12.5045 5.84501 14.7485 5.92451 16.181 3.90701C17.6135 1.88951 17.324 0.320511 17.273 0.262011ZM22.244 17.8615C22.172 17.7175 18.7565 16.0105 19.0745 12.7285C19.3925 9.44501 21.587 8.54501 21.6215 8.44751C21.656 8.35001 20.726 7.26251 19.7405 6.71201C19.0169 6.32389 18.2161 6.10152 17.396 6.06101C17.234 6.05651 16.6715 5.91851 15.515 6.23501C14.753 6.44351 13.0355 7.11851 12.563 7.14551C12.089 7.17251 10.679 6.36251 9.1625 6.14801C8.192 5.96051 7.163 6.34451 6.4265 6.64001C5.6915 6.93401 4.2935 7.77101 3.3155 9.99551C2.3375 12.2185 2.849 15.7405 3.215 16.8355C3.581 17.929 4.1525 19.7215 5.1245 21.0295C5.9885 22.5055 7.1345 23.53 7.613 23.878C8.0915 24.226 9.4415 24.457 10.3775 23.9785C11.1305 23.5165 12.4895 23.251 13.0265 23.2705C13.562 23.29 14.618 23.5015 15.6995 24.079C16.556 24.3745 17.366 24.2515 18.1775 23.9215C18.989 23.59 20.1635 22.333 21.5345 19.7845C22.055 18.5995 22.292 17.959 22.244 17.8615Z" fill="black"/>
</g>
<defs>
<clipPath id="clip0_7093_23618">
<rect width="24" height="24" fill="white" transform="translate(0.5 0.25)"/>
</clipPath>
</defs>
</svg>
