<svg width="28" height="28" viewBox="0 0 28 28" fill="none" xmlns="http://www.w3.org/2000/svg">
<path d="M23.3332 14.3193C23.3332 14.7623 23.0041 15.1284 22.577 15.1863L22.4582 15.1943L4.95823 15.1943C4.47499 15.1943 4.08323 14.8026 4.08323 14.3193C4.08323 13.8764 4.41241 13.5103 4.8395 13.4523L4.95823 13.4443L22.4582 13.4443C22.9415 13.4443 23.3332 13.8361 23.3332 14.3193Z" fill="#212121"/>
<path d="M12.6338 20.7281C12.9763 21.0691 12.9775 21.6231 12.6365 21.9656C12.3265 22.2769 11.8405 22.3062 11.4974 22.0527L11.399 21.9682L4.34072 14.9402C4.02847 14.6293 4.00007 14.1415 4.25551 13.7984L4.34066 13.7002L11.399 6.67102C11.7414 6.33002 12.2954 6.33116 12.6364 6.67358C12.9464 6.98487 12.9737 7.47103 12.7188 7.81305L12.6339 7.91101L6.1985 14.3205L12.6338 20.7281Z" fill="#212121"/>
</svg>
