<svg width="34" height="34" viewBox="0 0 34 34" fill="none" xmlns="http://www.w3.org/2000/svg">
<path fill-rule="evenodd" clip-rule="evenodd" d="M10.3845 2.8335H23.602C28.4186 2.8335 31.167 5.5535 31.167 10.3843V23.616C31.167 28.4185 28.4328 31.1668 23.6161 31.1668H10.3845C5.55365 31.1668 2.83365 28.4185 2.83365 23.616V10.3843C2.83365 5.5535 5.55365 2.8335 10.3845 2.8335ZM18.162 18.176H22.1853C22.837 18.1618 23.3611 17.6377 23.3611 16.986C23.3611 16.3343 22.837 15.8102 22.1853 15.8102H18.162V11.8152C18.162 11.1635 17.6378 10.6393 16.9861 10.6393C16.3345 10.6393 15.8103 11.1635 15.8103 11.8152V15.8102H11.8011C11.4895 15.8102 11.192 15.9377 10.9653 16.1502C10.7528 16.3768 10.6253 16.6729 10.6253 16.986C10.6253 17.6377 11.1495 18.1618 11.8011 18.176H15.8103V22.1852C15.8103 22.8368 16.3345 23.361 16.9861 23.361C17.6378 23.361 18.162 22.8368 18.162 22.1852V18.176Z" fill="#007AFF"/>
</svg>
