<svg width="186" height="180" viewBox="0 0 186 180" fill="none" xmlns="http://www.w3.org/2000/svg">
<circle cx="95.5" cy="90.5" r="70.5" fill="#4AAF57"/>
<circle cx="178.466" cy="27.5" r="7.5" fill="#4AAF57" fill-opacity="0.4"/>
<circle cx="20.0332" cy="10" r="10" fill="#4AAF57" fill-opacity="0.4"/>
<circle cx="10.0332" cy="133" r="5" fill="#4AAF57" fill-opacity="0.4"/>
<circle cx="165.533" cy="160.5" r="2.5" fill="#4AAF57" fill-opacity="0.4"/>
<path d="M57.6934 128.843C56.4014 128.775 55.5174 127.891 55.6534 126.531C55.7894 125.647 56.1974 124.899 56.4694 124.083C56.9454 122.587 57.4894 121.159 58.1014 119.663C58.7814 118.099 59.3253 116.467 59.9373 114.903C60.5493 113.339 61.0933 111.707 61.6373 110.143C62.0453 109.123 62.4533 108.103 62.7933 107.084C63.2693 105.724 63.8132 104.364 64.2892 103.072C64.6972 102.052 65.1052 100.964 65.4452 99.9437C65.9892 98.5837 66.4652 97.1557 67.0092 95.7958C67.4172 94.7758 67.8251 93.8238 68.1651 92.8039C68.5731 91.7839 68.9131 90.8319 69.2531 89.8119C69.6611 88.792 70.0011 87.772 70.4091 86.752C70.9531 85.392 71.4971 83.9641 71.973 82.6041C72.313 81.6521 72.653 80.7681 72.993 79.8842C73.401 78.8642 73.809 77.8442 74.217 76.8242C74.625 75.6003 76.3929 74.9203 77.5489 76.0083C78.9769 77.3682 80.3368 78.7962 81.7648 80.1562C84.1447 82.5361 86.5927 84.916 88.9726 87.296C91.8286 90.2199 94.6845 93.0758 97.6084 95.9318C101.212 99.5357 104.748 103.14 108.352 106.676C109.508 107.831 109.1 109.871 107.332 110.279C106.244 110.551 105.292 111.027 104.204 111.435C102.912 111.911 101.688 112.387 100.396 112.863C99.5804 113.135 98.8324 113.475 98.0164 113.747C96.7244 114.223 95.4325 114.699 94.1405 115.175C93.0525 115.583 92.0326 115.991 90.9446 116.399C89.9246 116.739 88.9046 117.079 87.8847 117.487C86.8647 117.895 85.7767 118.303 84.7567 118.711C83.7368 119.119 82.7168 119.459 81.6968 119.867C80.6768 120.275 79.5889 120.683 78.5689 121.023C77.4809 121.431 76.3929 121.839 75.305 122.247C74.353 122.587 73.401 122.995 72.381 123.335C71.0891 123.811 69.7291 124.287 68.4371 124.831C67.4172 125.239 66.3292 125.647 65.3092 125.987C64.2212 126.395 63.1333 126.871 62.0453 127.211C61.0253 127.551 60.0733 127.959 59.0534 128.367C58.6454 128.639 58.2374 128.843 57.6934 128.843ZM99.9204 109.803C99.2404 109.395 98.6964 109.123 98.0844 108.783C96.4524 107.831 94.8205 106.948 93.1885 105.996C91.2846 104.908 89.4486 103.888 87.5447 102.8C86.0487 101.984 84.5527 101.1 83.0568 100.216C81.8328 99.5357 80.5408 98.8557 79.3169 98.1757C78.0249 97.4277 76.7329 96.6798 75.441 95.9318C74.149 95.1838 72.789 94.4358 71.4971 93.6878C71.1571 93.4838 71.0891 93.6198 71.0211 93.8918C70.7491 94.7078 70.4091 95.4558 70.1371 96.2038C69.5931 97.7677 68.9811 99.3317 68.3691 100.896C68.3011 101.032 68.3691 101.1 68.5051 101.168C69.2531 101.576 70.0011 102.052 70.8171 102.46C72.925 103.548 75.033 104.84 77.1409 105.996C78.9769 107.016 80.8128 108.035 82.6488 109.123C84.7567 110.347 86.8647 111.435 88.9726 112.659C89.7886 113.135 90.5366 113.407 91.3526 112.795C91.4206 112.727 91.4886 112.727 91.5566 112.727C92.5765 112.319 93.5965 111.979 94.6165 111.571C95.6365 111.163 96.6564 110.823 97.6764 110.415C98.4244 110.415 99.1044 110.143 99.9204 109.803ZM105.02 107.831C104.952 107.763 104.884 107.695 104.816 107.627C102.096 104.908 99.3764 102.188 96.6564 99.4677C94.4125 97.2237 92.2365 95.0478 89.9926 92.8039C88.9046 91.7159 87.8847 90.6279 86.7967 89.6079C85.8447 88.724 84.6207 88.316 83.6008 87.636C82.4448 86.888 81.2208 86.276 79.9968 85.596C78.5009 84.712 77.0049 83.9641 75.577 83.0801C75.305 82.8761 75.169 82.9441 75.033 83.2841C74.761 84.1001 74.489 84.848 74.217 85.664C73.605 87.228 73.061 88.7919 72.449 90.3559C72.381 90.5599 72.449 90.6279 72.585 90.6959C74.897 91.9879 77.2089 93.2798 79.5209 94.5718C80.6088 95.1838 81.6968 95.7958 82.7168 96.4078C83.7368 97.0198 84.8247 97.5637 85.9127 98.1757C87.4087 98.9917 88.9046 99.8757 90.4006 100.76C91.4206 101.372 92.5085 101.916 93.5285 102.46C95.0245 103.344 96.5205 104.228 98.0164 105.044C99.5124 105.86 100.94 106.744 102.436 107.492C103.184 107.899 103.932 108.647 104.952 107.899C105.02 107.899 105.02 107.899 105.02 107.831ZM85.9807 114.971C85.7767 114.835 85.6407 114.699 85.4367 114.631C84.7567 114.291 84.1447 113.951 83.4648 113.543C82.0368 112.591 80.4728 111.843 78.9769 110.959C77.1409 109.871 75.237 108.851 73.401 107.831C71.4291 106.676 69.4571 105.588 67.4852 104.432C67.2132 104.296 67.1452 104.364 67.0772 104.568C66.8732 105.384 66.4652 106.132 66.1932 106.88C65.6492 108.443 64.9692 110.007 64.3572 111.639C64.2892 111.775 64.3572 111.843 64.4932 111.911C65.5132 112.455 66.4652 113.067 67.4172 113.611C68.8451 114.427 70.2731 115.243 71.769 116.059C73.129 116.807 74.489 117.555 75.7809 118.303C76.2569 118.575 76.5969 118.575 77.0729 118.371C77.4129 118.235 77.7529 118.099 78.0929 117.963C79.1809 117.555 80.3368 117.147 81.4248 116.739C82.1728 116.467 82.9208 116.263 83.6688 115.923C84.4167 115.583 85.2327 115.447 85.9807 114.971ZM72.313 120.207C71.769 119.867 71.3611 119.595 70.8851 119.391C69.2531 118.575 67.8251 117.623 66.1932 116.739C65.2412 116.263 64.3572 115.719 63.4052 115.175C63.2013 115.039 63.1333 115.107 63.0653 115.243C62.8613 115.855 62.5893 116.399 62.3853 117.011C61.8413 118.439 61.2973 119.935 60.7533 121.431C60.6173 121.771 60.3453 122.179 60.3453 122.519C60.3453 122.927 60.8893 122.995 61.2293 123.199C61.2293 123.199 61.2293 123.199 61.2973 123.267C61.9093 123.607 62.4533 124.151 63.2693 123.675C63.4732 123.539 63.6772 123.471 63.8812 123.403C65.2412 122.927 66.6012 122.383 67.9611 121.907C69.4571 121.295 70.8171 120.751 72.313 120.207Z" fill="white"/>
<path d="M129.772 65.9445C127.732 64.6525 125.896 63.4286 123.992 62.2046C123.788 62.0686 123.652 62.0686 123.448 62.1366C121.748 62.8166 120.116 63.5646 118.416 64.2445C118.212 64.3125 117.94 64.3125 117.736 64.5165C117.6 64.6525 117.396 64.7885 117.26 64.6525C117.192 64.5845 117.192 64.3125 117.26 64.1765C117.6 63.2246 117.804 62.2046 118.076 61.2526C118.416 60.2326 118.62 59.2127 118.96 58.1927C119.028 57.9887 118.96 57.8527 118.824 57.7167C117.532 56.2207 116.24 54.6568 114.948 53.1608C114.744 52.9568 114.608 52.7528 114.336 52.4128C115.424 52.4128 116.376 52.4128 117.396 52.3448C118.688 52.2768 119.98 52.0728 121.34 52.1408C121.476 52.1408 121.544 52.0728 121.68 51.9368C122.768 50.1689 123.788 48.4689 124.876 46.701C125.012 46.497 125.012 46.293 125.216 46.157C125.624 46.633 125.692 47.177 125.896 47.7209C126.372 48.8089 126.712 49.9649 127.188 51.0529C127.324 51.3929 127.528 51.8008 127.596 52.2088C127.664 52.6168 127.868 52.7528 128.344 52.8208C128.956 52.8888 129.5 53.1608 130.044 53.2288C131.608 53.5688 133.103 53.9768 134.735 54.3848C133.851 55.1328 133.035 55.8127 132.219 56.4247C131.336 57.1727 130.452 57.9207 129.5 58.6007C129.296 58.7367 129.228 58.9407 129.228 59.2127C129.16 60.2326 129.364 61.2526 129.432 62.2046C129.568 63.4286 129.5 64.6525 129.772 65.9445Z" fill="white"/>
<path d="M100.601 91.5119C101.893 90.3559 103.049 89.1319 104.341 87.976C106.381 86.14 108.557 84.4401 110.733 82.8081C112.501 81.4481 114.405 80.2921 116.309 79.1362C117.737 78.2522 119.301 77.3682 120.797 76.5522C122.021 75.8723 123.245 75.3283 124.468 74.7163C125.624 74.1723 126.78 73.6963 127.936 73.1523C129.296 72.6083 130.588 72.0643 131.948 71.6564C132.22 71.5884 132.288 71.6564 132.356 71.8604C132.628 72.9483 132.968 74.1043 133.24 75.1923C133.376 75.8043 133.58 76.4162 133.716 77.0282C133.784 77.3002 133.852 77.4362 133.444 77.5042C132.152 77.7082 130.792 77.9802 129.5 78.2522C128.956 78.3882 128.412 78.5242 127.868 78.6602C126.032 79.2042 124.129 79.7482 122.293 80.2922C121.001 80.7001 119.709 81.2441 118.417 81.7201C116.921 82.2641 115.425 82.9441 113.997 83.6241C112.637 84.2361 111.345 84.984 109.985 85.664C108.421 86.412 106.993 87.364 105.497 88.248C104.069 89.1319 102.777 90.0839 101.417 90.9679C101.145 91.1039 100.941 91.3079 100.737 91.4439C100.669 91.5799 100.601 91.5799 100.601 91.5119Z" fill="white"/>
<path d="M122.767 105.384C122.971 105.316 123.175 105.316 123.311 105.316C124.739 105.588 126.167 105.928 127.595 106.2C128.003 106.268 128.343 106.268 128.683 105.928C129.771 104.84 130.859 103.752 131.947 102.664C132.015 102.596 132.151 102.528 132.355 102.392C132.559 104.092 132.831 105.656 132.899 107.287C132.899 108.103 133.579 108.171 134.055 108.443C135.347 109.123 136.639 109.803 137.999 110.551C137.047 111.027 136.163 111.435 135.279 111.775C134.531 112.115 133.783 112.455 132.967 112.795C132.831 112.863 132.831 112.999 132.763 113.135C132.559 113.883 132.491 114.699 132.355 115.515C132.151 116.467 132.151 117.487 131.743 118.439C130.995 117.623 130.179 116.807 129.431 115.991C128.955 115.515 128.547 115.039 128.071 114.563C128.003 114.495 127.867 114.359 127.731 114.427C127.187 114.563 126.575 114.563 125.963 114.631C124.943 114.835 123.923 114.971 122.903 115.107C122.767 115.107 122.495 115.243 122.359 115.039C122.291 114.835 122.495 114.699 122.563 114.563C123.379 113.135 124.127 111.775 124.875 110.347C125.079 110.007 124.671 109.667 124.535 109.327C124.127 108.103 123.447 106.743 122.767 105.384Z" fill="white"/>
<path d="M95.501 84.304C95.909 83.692 96.317 83.08 96.7929 82.468C97.6769 81.1761 98.5609 79.8841 99.3089 78.5241C99.9889 77.3682 100.601 76.2122 101.213 75.0562C101.757 74.0362 102.165 73.0163 102.641 71.9963C103.117 70.8403 103.593 69.6163 104.069 68.3924C104.545 67.2364 104.953 66.0124 105.225 64.7885C105.361 64.3125 105.565 63.9045 105.701 63.4285C106.109 61.9325 106.449 60.4366 106.789 58.9406C106.857 58.4646 106.993 58.3966 107.469 58.6006C108.285 58.9406 109.169 59.1446 109.985 59.4166C110.801 59.6886 111.617 59.8926 112.433 60.0966C112.705 60.1646 112.705 60.3006 112.637 60.5046C112.297 61.3205 111.957 62.2045 111.549 63.0205C111.073 64.0405 110.529 65.1285 109.985 66.0804C109.441 67.1004 108.829 68.1884 108.217 69.1404C107.401 70.4323 106.585 71.6563 105.769 72.8803C104.341 74.8522 102.913 76.7562 101.281 78.5241C99.4449 80.7001 97.5409 82.604 95.501 84.304Z" fill="white"/>
<path d="M89.1089 50.4408C90.4689 50.4408 91.8288 50.4408 93.1208 50.4408C93.5288 50.4408 93.8008 50.3728 94.0728 49.9649C94.7527 48.8769 95.5007 47.8569 96.2487 46.7689C96.3167 46.7009 96.3847 46.6329 96.5207 46.5649C96.9967 47.7889 97.3367 48.9449 97.6087 50.1689C97.7447 50.8488 98.2207 51.1888 98.9006 51.3928C99.7846 51.6648 100.737 51.9368 101.621 52.2088C101.893 52.2768 102.165 52.4128 102.505 52.4808C101.281 53.3648 100.125 54.1808 98.9006 54.9967C98.6287 55.2007 98.5607 55.4047 98.5607 55.6767C98.5607 57.1047 98.5607 58.4647 98.5607 59.9606C97.9487 59.6886 97.5407 59.2806 97.0647 58.9406C96.3167 58.3967 95.5687 57.8527 94.8887 57.3087C94.8207 57.2407 94.7527 57.1727 94.6168 57.2407C93.3248 57.7167 91.9648 58.1247 90.6728 58.6006C90.5368 58.6686 90.4009 58.7366 90.3329 58.6686C90.1969 58.5326 90.3329 58.3967 90.4009 58.2607C90.8768 56.9687 91.2848 55.6767 91.7608 54.3848C91.8288 54.1808 91.6928 54.1128 91.6248 53.9768C90.9448 53.0248 90.1969 52.0728 89.5169 51.0528C89.3809 50.8488 89.2449 50.5768 89.1089 50.4408Z" fill="white"/>
<path d="M86.3203 80.7001C86.3203 79.7482 86.3203 78.7962 86.3203 77.8442C86.3203 76.2803 85.9803 74.7163 85.7763 73.2203C85.5723 72.0644 85.3003 70.9764 85.0283 69.8204C84.6883 68.6644 84.3483 67.5085 83.8723 66.4205C83.3964 65.3325 82.9204 64.2445 82.3764 63.1566C82.2404 62.8846 81.9004 62.6126 82.0364 62.3406C82.1724 62.0006 82.5804 62.1366 82.8524 62.0006C84.0763 61.5246 85.3003 61.0486 86.5923 60.7086C86.8643 60.6406 87.0683 60.4366 87.4083 60.3686C87.6803 60.3006 87.7483 60.3686 87.8843 60.6406C88.1562 61.5246 88.1562 62.4086 88.2922 63.2926C88.7682 66.0805 88.6322 68.9364 88.4962 71.7924C88.4282 73.2203 88.0882 74.6483 87.8163 76.0763C87.5443 77.5042 87.1363 78.9322 86.7283 80.2922C86.5243 80.4282 86.5243 80.6322 86.3203 80.7001Z" fill="white"/>
<path d="M104.952 99.8076C106.584 99.1277 108.284 98.5837 109.984 98.1757C113.383 97.3597 116.783 97.1557 120.251 97.3597C121.815 97.4277 123.311 97.7677 124.875 97.9717C125.215 98.0397 125.283 98.1757 125.147 98.5157C124.603 99.9436 124.059 101.372 123.583 102.8C123.515 103.072 123.243 103.344 123.243 103.616C123.243 103.82 123.107 103.82 122.971 103.752C121.883 103.14 120.795 102.596 119.571 102.12C118.483 101.644 117.327 101.236 116.171 100.964C115.695 100.828 115.219 100.692 114.743 100.556C111.751 99.8076 108.692 99.5357 105.564 99.7397C105.36 99.8077 105.156 99.8076 104.952 99.8076Z" fill="white"/>
<path d="M68.9808 55.2008C68.9808 55.7448 69.0488 56.3568 69.1848 56.9688C69.2528 57.1728 69.3208 57.3088 69.2528 57.5128C69.0488 58.6007 69.8648 58.8047 70.6128 59.0767C71.0887 59.2807 71.6327 59.5527 72.1087 59.8247C72.2447 59.8927 72.3807 59.8927 72.3127 60.0967C72.3127 60.2327 72.1767 60.2327 72.1087 60.3007C71.3607 60.6407 70.6128 61.0487 69.8648 61.3887C69.4568 61.5247 69.3208 61.7966 69.3208 62.2046C69.3208 63.1566 68.9128 64.1086 68.9808 65.1286C68.2328 64.3806 67.4848 63.7006 66.8728 63.0206C66.6009 62.7486 66.3289 62.6806 65.9209 62.7486C64.9689 62.8166 64.0849 63.2246 63.0649 63.1566C63.4729 62.4086 63.8129 61.6606 64.2209 60.9807C64.5609 60.3687 64.5609 59.8927 64.2209 59.3487C63.8129 58.6687 63.4729 57.9207 63.0649 57.1728C63.8809 57.0368 64.6289 57.3768 65.3769 57.5128C65.7169 57.5807 65.9889 57.5807 66.3289 57.5807C66.4649 57.5807 66.6009 57.5128 66.7369 57.3768C67.4848 56.5608 68.2328 55.8808 68.9808 55.2008Z" fill="white"/>
<path d="M124.4 83.2161C125.216 83.3521 126.032 83.3521 126.78 83.5561C127.12 83.624 127.256 83.4881 127.392 83.3521C127.936 82.8081 128.412 82.2641 128.956 81.6521C129.228 82.3321 129.16 83.0121 129.228 83.6241C129.296 84.236 129.568 84.576 130.112 84.78C130.656 84.984 131.2 85.324 131.811 85.596C131.064 85.936 130.316 86.344 129.568 86.684C129.364 86.752 129.364 86.956 129.296 87.092C129.024 87.8399 129.16 88.6559 128.888 89.5399C128.344 88.9959 127.868 88.5199 127.324 88.0439C127.052 87.772 126.848 87.704 126.44 87.772C125.76 87.8399 125.012 87.9759 124.264 88.1799C124.468 87.432 124.876 86.82 125.216 86.208C125.42 85.8 125.42 85.528 125.216 85.188C125.08 84.44 124.74 83.828 124.4 83.2161Z" fill="white"/>
<path d="M134.871 94.6398C136.367 94.5718 137.387 95.7958 137.387 97.1557C137.387 98.5837 136.163 99.7397 134.803 99.6717C133.443 99.6037 132.355 98.5157 132.355 97.0877C132.423 95.7958 133.375 94.5718 134.871 94.6398ZM134.871 95.9318C134.191 95.9318 133.647 96.4077 133.647 97.0197C133.647 97.5637 134.259 98.2437 134.803 98.2437C135.415 98.2437 136.027 97.6317 136.027 97.0197C136.027 96.4757 135.551 95.9318 134.871 95.9318Z" fill="white"/>
<path d="M123.107 70.7044C123.175 72.0644 121.951 73.1524 120.591 73.1524C119.232 73.1524 118.144 72.0644 118.144 70.7044C118.144 69.2085 119.368 68.1885 120.659 68.1885C121.951 68.1885 123.175 69.2765 123.107 70.7044ZM120.591 71.7924C121.203 71.7924 121.747 71.2484 121.747 70.6364C121.747 70.0244 121.135 69.4124 120.591 69.4804C119.98 69.4804 119.504 70.0244 119.436 70.6364C119.436 71.2484 119.98 71.7924 120.591 71.7924Z" fill="white"/>
<path d="M81.9013 60.0286C80.6093 59.8926 79.5894 59.0766 79.5894 57.6486C79.5894 56.2887 80.6093 55.2687 81.9013 55.3367C83.3293 55.3367 84.2812 56.4247 84.2812 57.6486C84.3492 58.9406 83.1933 60.0286 81.9013 60.0286ZM82.9893 57.6486C82.9893 57.0367 82.5133 56.5607 81.9693 56.5607C81.3573 56.5607 80.9493 57.0367 80.9493 57.6486C80.9493 58.1246 81.4933 58.7366 81.9693 58.6686C82.4453 58.7366 82.9893 58.1926 82.9893 57.6486Z" fill="white"/>
<path d="M77.0041 71.1124C75.8482 71.2484 74.6922 70.0244 74.7602 68.8004C74.7602 67.6445 75.8482 66.5565 77.0041 66.6245C78.4321 66.6245 79.2481 67.5765 79.3161 68.8004C79.3161 69.8204 78.3641 71.1804 77.0041 71.1124ZM76.9361 69.6844C77.4801 69.6844 77.8881 69.3444 77.8881 68.8684C77.8881 68.3924 77.4801 67.9845 77.0041 67.9845C76.5281 67.9845 76.0522 68.3924 76.0522 68.8684C76.0522 69.2764 76.4601 69.6844 76.9361 69.6844Z" fill="white"/>
<path d="M109.168 55.7447C108.148 55.7447 107.4 54.8608 107.332 53.7728C107.264 52.6848 108.284 51.8688 109.168 51.8688C110.256 51.8688 111.14 52.7528 111.14 53.8408C111.072 54.8608 110.188 55.7447 109.168 55.7447ZM108.556 53.9088C108.556 54.1808 108.828 54.3848 109.1 54.3848C109.44 54.3848 109.712 54.1128 109.712 53.7728C109.712 53.4328 109.44 53.1608 109.1 53.1608C108.828 53.2288 108.556 53.4328 108.556 53.9088Z" fill="white"/>
<path d="M107.741 73.0843C108.081 73.0843 108.353 73.0163 108.625 73.1523C109.169 73.3563 109.577 73.2203 109.985 72.7443C110.189 72.5403 110.325 72.2683 110.665 72.1323C110.733 72.3363 110.801 72.5403 110.801 72.6763C110.733 73.6283 111.413 74.1043 112.161 74.3763C112.297 74.4443 112.433 74.4443 112.433 74.5803C112.433 74.7163 112.297 74.7163 112.229 74.7843C111.889 74.9203 111.617 75.0563 111.277 75.1923C111.073 75.2602 111.005 75.3962 110.937 75.6682C110.869 76.1442 110.801 76.5522 110.665 77.1642C109.985 75.9402 109.033 75.6002 107.809 76.2122C107.945 75.6002 108.217 75.2602 108.353 74.9203C108.489 74.6483 108.489 74.5123 108.353 74.2403C108.081 73.8323 107.945 73.4923 107.741 73.0843Z" fill="white"/>
<path d="M113.587 89.064C114.811 89.2 115.423 89.8119 115.491 90.9679C115.559 91.9879 114.675 92.8039 113.655 92.8039C112.635 92.8039 111.751 91.9879 111.751 90.9679C111.819 89.8119 112.499 89.2 113.587 89.064ZM113.655 91.4439C113.927 91.3759 114.199 91.2399 114.131 90.8999C114.131 90.6279 113.927 90.4239 113.587 90.4239C113.247 90.4239 113.179 90.6279 113.111 90.8999C113.111 91.2399 113.315 91.3759 113.655 91.4439Z" fill="white"/>
<path d="M96.3844 72.3363C96.2484 71.9283 96.0444 71.6563 95.9084 71.3843C95.7724 71.0444 95.4324 71.1124 95.0924 71.1124C94.9564 71.1124 94.7524 71.1804 94.6844 71.0444C94.6164 70.8404 94.8204 70.8404 94.9564 70.7724C95.6364 70.2964 95.5004 69.6844 95.3644 68.9364C96.1124 69.5484 96.8604 69.5484 97.6083 69.0044C97.1323 69.8884 97.4043 70.5684 98.2203 71.1124C97.2003 70.9764 96.5884 71.3843 96.3844 72.3363Z" fill="white"/>
<path d="M107.876 48.197C108.352 47.925 108.76 47.857 108.964 47.517C109.168 47.245 109.168 46.837 109.236 46.429C109.644 46.565 109.78 47.109 110.12 47.177C110.46 47.245 110.868 47.041 111.344 47.109C110.664 47.789 110.732 48.469 111.276 49.081C111.072 49.2169 110.936 49.149 110.8 49.081C110.256 49.013 109.848 49.081 109.508 49.5569C109.44 49.6929 109.236 49.8969 109.168 49.5569C109.168 48.877 108.692 48.333 107.876 48.197Z" fill="white"/>
<path d="M72.721 49.0129C73.1969 48.4009 73.1969 47.857 72.585 47.177C73.3329 47.449 73.8769 47.449 74.2169 46.769C74.4889 47.041 74.3529 47.449 74.5569 47.653C74.7609 47.857 75.0329 47.993 75.3729 48.061C75.2369 48.1289 75.1689 48.1969 75.1009 48.2649C74.5569 48.3329 74.3529 48.6729 74.3529 49.2169C74.3529 49.3529 74.2169 49.5569 74.0809 49.3529C73.8089 48.8089 73.2649 48.8769 72.721 49.0129Z" fill="white"/>
<path d="M134.872 62.3407C135.416 62.4767 135.892 62.6807 136.3 62.1367C136.368 62.0007 136.572 62.0687 136.504 62.2727C136.368 62.8847 136.776 63.1566 137.184 63.4286C136.64 63.6326 136.096 63.7686 136.096 64.5166C135.756 63.9726 135.348 63.5646 134.6 63.8366C135.076 63.3606 135.416 62.9527 134.872 62.3407Z" fill="white"/>
<circle cx="106.533" cy="4.5" r="2.5" fill="#4AAF57" fill-opacity="0.4"/>
<circle cx="62.5332" cy="176.5" r="3.5" fill="#4AAF57" fill-opacity="0.4"/>
<circle cx="122.033" cy="171" r="1" fill="#4AAF57" fill-opacity="0.4"/>
<circle cx="170.533" cy="110.5" r="2.5" fill="#4AAF57" fill-opacity="0.4"/>
<circle cx="1.0332" cy="75" r="1" fill="#4AAF57" fill-opacity="0.4"/>
</svg>
