<svg width="289" height="290" viewBox="0 0 289 290" fill="none" xmlns="http://www.w3.org/2000/svg">
<path d="M277.668 88.8684C270.29 71.739 260.012 56.4543 246.835 43.0143C233.659 29.8378 218.111 19.2967 200.981 12.1814C183.325 4.53902 164.351 0.849609 144.85 0.849609C125.348 0.849609 106.638 4.53902 88.7178 12.1814C71.5884 19.5602 56.3037 29.8378 42.8637 43.0143C29.6872 56.1908 19.146 71.739 12.0307 88.8684C4.38838 106.525 0.698975 125.499 0.698975 145C0.698975 164.501 4.38838 183.212 12.0307 201.132C19.4096 218.261 29.6872 233.546 42.8637 246.986C56.0401 260.163 71.5884 270.704 88.7178 277.819C106.374 285.461 125.348 289.151 144.85 289.151C164.351 289.151 183.061 285.461 200.981 277.819C218.111 270.44 233.395 260.163 246.835 246.986C260.012 233.81 270.553 218.261 277.668 201.132C285.311 183.475 289 164.501 289 145C289 125.499 285.311 106.788 277.668 88.8684ZM225.226 225.113C203.88 246.459 175.419 258.318 145.113 258.318C114.807 258.318 86.346 246.459 65.0001 225.113C43.3907 203.767 31.7954 175.306 31.7954 145C31.7954 114.694 43.6543 86.2331 65.0001 64.8872C86.346 43.2778 114.807 31.6825 145.113 31.6825C175.419 31.6825 203.88 43.5414 225.226 64.8872C246.572 86.2331 258.431 114.694 258.431 145C258.431 175.306 246.835 203.767 225.226 225.113Z" fill="url(#paint0_linear_7144_3621)"/>
<path d="M212.843 79.1179C207.045 73.0568 197.295 73.0568 191.234 78.8544L145.116 123.654L98.9982 78.8544C92.9371 73.0568 83.1865 73.0568 77.3888 79.1179C71.5912 85.1791 71.5912 94.9297 77.6524 100.727L123.243 145L77.9159 189.273C71.8547 195.071 71.8547 204.821 77.6524 210.883C80.5512 214.045 84.5041 215.626 88.7206 215.626C92.6735 215.626 96.3629 214.309 99.2618 211.41L145.379 166.61L191.497 211.41C194.396 214.309 198.349 215.626 202.038 215.626C205.991 215.626 209.944 214.045 213.106 210.883C218.904 204.821 218.904 195.071 212.843 189.273L166.989 145L212.316 100.727C218.377 94.9297 218.641 85.1791 212.843 79.1179Z" fill="url(#paint1_linear_7144_3621)"/>
<defs>
<linearGradient id="paint0_linear_7144_3621" x1="289" y1="289.151" x2="-54.0524" y2="189.686" gradientUnits="userSpaceOnUse">
<stop stop-color="#E80000"/>
<stop offset="1" stop-color="#FF6B6B"/>
</linearGradient>
<linearGradient id="paint1_linear_7144_3621" x1="217.422" y1="215.626" x2="46.2803" y2="164.858" gradientUnits="userSpaceOnUse">
<stop stop-color="#E80000"/>
<stop offset="1" stop-color="#FF6B6B"/>
</linearGradient>
</defs>
</svg>
