<svg width="20" height="19" viewBox="0 0 20 19" fill="none" xmlns="http://www.w3.org/2000/svg">
<path fill-rule="evenodd" clip-rule="evenodd" d="M0.800049 9.50816C0.800049 4.50687 4.79698 0 10.3129 0C15.7055 0 19.7878 4.42129 19.7878 9.47963C19.7878 15.3462 15.0029 18.9878 10.2939 18.9878C8.73695 18.9878 7.00906 18.5694 5.62295 17.7517C5.13876 17.457 4.73052 17.2383 4.20836 17.4094L2.29059 17.9799C1.8064 18.1321 1.36968 17.7517 1.51209 17.2383L2.14818 15.1085C2.25261 14.8137 2.23363 14.4999 2.08172 14.2527C1.26525 12.7504 0.800049 11.1055 0.800049 9.50816ZM9.05992 9.50809C9.05992 10.1832 9.60107 10.7251 10.2751 10.7346C10.9492 10.7346 11.4904 10.1832 11.4904 9.5176C11.4904 8.84252 10.9492 8.30056 10.2751 8.30056C9.61056 8.29105 9.05992 8.84252 9.05992 9.50809ZM13.4366 9.51761C13.4366 10.1832 13.9777 10.7347 14.6518 10.7347C15.3259 10.7347 15.867 10.1832 15.867 9.51761C15.867 8.84254 15.3259 8.30057 14.6518 8.30057C13.9777 8.30057 13.4366 8.84254 13.4366 9.51761ZM5.89812 10.7348C5.23354 10.7348 4.6829 10.1833 4.6829 9.51771C4.6829 8.84264 5.22405 8.30067 5.89812 8.30067C6.57218 8.30067 7.11333 8.84264 7.11333 9.51771C7.11333 10.1833 6.57218 10.7253 5.89812 10.7348Z" fill="#007AFF"/>
</svg>
