<svg width="21" height="20" viewBox="0 0 21 20" fill="none" xmlns="http://www.w3.org/2000/svg">
<mask id="mask0_7180_14192" style="mask-type:luminance" maskUnits="userSpaceOnUse" x="0" y="0" width="21" height="20">
<path fill-rule="evenodd" clip-rule="evenodd" d="M0.800049 0H20.4238V19.6244H0.800049V0Z" fill="white"/>
</mask>
<g mask="url(#mask0_7180_14192)">
<path fill-rule="evenodd" clip-rule="evenodd" d="M5.46432 17.0509C5.99387 17.0509 6.4933 17.2518 7.02194 17.4645C10.2605 18.9619 14.0906 18.2808 16.5859 15.7864C19.8783 12.4922 19.8783 7.1336 16.5859 3.84122C14.9918 2.24707 12.8717 1.36965 10.6147 1.36965C8.35679 1.36965 6.23583 2.24798 4.64259 3.84213C2.14637 6.33652 1.46708 10.1667 2.95075 13.3741C3.1644 13.9028 3.37075 14.4177 3.37075 14.9528C3.37075 15.4869 3.18723 16.0247 3.02562 16.4994C2.89232 16.8902 2.69054 17.48 2.82019 17.6097C2.9471 17.7412 3.54057 17.5339 3.93226 17.3997C4.40247 17.239 4.93568 17.0546 5.46432 17.0509ZM10.5918 19.6246C9.19665 19.6246 7.79242 19.3297 6.47857 18.7216C6.09144 18.5664 5.72897 18.4203 5.46876 18.4203C5.16929 18.4222 4.76664 18.5609 4.37769 18.6952C3.5797 18.9691 2.58633 19.3105 1.85134 18.5783C1.11909 17.8451 1.45691 16.8545 1.729 16.0574C1.86321 15.6648 2.00108 15.2594 2.00108 14.9527C2.00108 14.7007 1.87965 14.3793 1.69339 13.9164C-0.016712 10.2232 0.77397 5.77216 3.67466 2.8733C5.52628 1.02077 7.99054 0 10.6137 0C13.2368 0 15.702 1.01985 17.5536 2.87239C21.381 6.6998 21.381 12.9267 17.5536 16.7541C15.6773 18.6312 13.151 19.6246 10.5918 19.6246Z" fill="#9E9E9E"/>
</g>
</svg>
