<svg width="18" height="17" viewBox="0 0 18 17" fill="none" xmlns="http://www.w3.org/2000/svg">
<path fill-rule="evenodd" clip-rule="evenodd" d="M9 1.41663C5.09417 1.41663 1.91667 4.59413 1.91667 8.49996C1.91667 12.4058 5.09417 15.5833 9 15.5833C12.9058 15.5833 16.0833 12.4058 16.0833 8.49996C16.0833 4.59413 12.9058 1.41663 9 1.41663ZM9 16.8333C4.405 16.8333 0.666668 13.095 0.666668 8.49996C0.666668 3.90496 4.405 0.166626 9 0.166626C13.595 0.166626 17.3333 3.90496 17.3333 8.49996C17.3333 13.095 13.595 16.8333 9 16.8333Z" fill="#212121"/>
<path fill-rule="evenodd" clip-rule="evenodd" d="M8.99508 9.64417C8.65008 9.64417 8.37008 9.36417 8.37008 9.01917V5.33667C8.37008 4.99167 8.65008 4.71167 8.99508 4.71167C9.34008 4.71167 9.62008 4.99167 9.62008 5.33667V9.01917C9.62008 9.36417 9.34008 9.64417 8.99508 9.64417Z" fill="#212121"/>
<path fill-rule="evenodd" clip-rule="evenodd" d="M9.00325 12.4965C8.54242 12.4965 8.16575 12.124 8.16575 11.6632C8.16575 11.2023 8.53492 10.8298 8.99492 10.8298H9.00325C9.46409 10.8298 9.83659 11.2023 9.83659 11.6632C9.83659 12.124 9.46409 12.4965 9.00325 12.4965Z" fill="#212121"/>
</svg>
