<svg width="186" height="180" viewBox="0 0 186 180" fill="none" xmlns="http://www.w3.org/2000/svg">
<circle cx="95.5" cy="90.5" r="70.5" fill="url(#paint0_linear_7210_5204)"/>
<circle cx="178.466" cy="27.5" r="7.5" fill="#67AFFD"/>
<circle cx="20.0332" cy="10" r="10" fill="#67AFFD"/>
<circle cx="10.0332" cy="133" r="5" fill="#67AFFD"/>
<circle cx="165.533" cy="160.5" r="2.5" fill="#67AFFD"/>
<path fill-rule="evenodd" clip-rule="evenodd" d="M77.9585 49.333H114.083C128.208 49.333 137.667 59.2497 137.667 73.9997V108.046C137.667 122.75 128.208 132.666 114.083 132.666H77.9585C63.8335 132.666 54.3335 122.75 54.3335 108.046V73.9997C54.3335 59.2497 63.8335 49.333 77.9585 49.333ZM93.6249 103.458L113.417 83.6663C114.833 82.2497 114.833 79.958 113.417 78.4997C112 77.083 109.667 77.083 108.25 78.4997L91.0416 95.708L83.7499 88.4163C82.3333 86.9997 79.9999 86.9997 78.5833 88.4163C77.1666 89.833 77.1666 92.1247 78.5833 93.583L88.4999 103.458C89.2083 104.166 90.1249 104.5 91.0416 104.5C91.9999 104.5 92.9166 104.166 93.6249 103.458Z" fill="white"/>
<circle cx="106.533" cy="4.5" r="2.5" fill="#67AFFD"/>
<circle cx="62.5332" cy="176.5" r="3.5" fill="#67AFFD"/>
<circle cx="122.033" cy="171" r="1" fill="#67AFFD"/>
<circle cx="170.533" cy="110.5" r="2.5" fill="#67AFFD"/>
<circle cx="1.0332" cy="75" r="1" fill="#67AFFD"/>
<defs>
<linearGradient id="paint0_linear_7210_5204" x1="166" y1="161" x2="-1.77734" y2="112.355" gradientUnits="userSpaceOnUse">
<stop stop-color="#246BFD"/>
<stop offset="1" stop-color="#5089FF"/>
</linearGradient>
</defs>
</svg>
