<svg width="40" height="40" viewBox="0 0 40 40" fill="none" xmlns="http://www.w3.org/2000/svg">
<path fill-rule="evenodd" clip-rule="evenodd" d="M27.7755 3.35048C30.173 3.20063 32.5373 4.0331 34.3188 5.66475C35.9504 7.44624 36.7829 9.81046 36.6497 12.2246V27.7752C36.7996 30.1894 35.9504 32.5536 34.3354 34.3351C32.5539 35.9667 30.173 36.7992 27.7755 36.6494H12.2248C9.8106 36.7992 7.44636 35.9667 5.66485 34.3351C4.03319 32.5536 3.20072 30.1894 3.35056 27.7752V12.2246C3.20072 9.81046 4.03319 7.44624 5.66485 5.66475C7.44636 4.0331 9.8106 3.20063 12.2248 3.35048H27.7755ZM18.3019 28.0749L29.507 16.8365C30.5227 15.8043 30.5227 14.1393 29.507 13.1237L27.3426 10.9593C26.3103 9.92701 24.6454 9.92701 23.6131 10.9593L22.4976 12.0914C22.3311 12.2579 22.3311 12.541 22.4976 12.7075C22.4976 12.7075 25.1449 15.3381 25.1948 15.4047C25.378 15.6045 25.4945 15.8709 25.4945 16.1705C25.4945 16.7699 25.0117 17.2694 24.3956 17.2694C24.1126 17.2694 23.8462 17.1529 23.663 16.9697L20.8826 14.2059C20.7494 14.0727 20.5163 14.0727 20.3831 14.2059L12.4412 22.1477C11.8918 22.6971 11.5755 23.4297 11.5588 24.2122L11.4589 28.1581C11.4589 28.3746 11.5255 28.5744 11.6753 28.7242C11.8252 28.8741 12.025 28.9573 12.2414 28.9573H16.1541C16.9533 28.9573 17.7191 28.641 18.3019 28.0749Z" fill="#007AFF"/>
</svg>
