<svg width="24" height="25" viewBox="0 0 24 25" fill="none" xmlns="http://www.w3.org/2000/svg">
<path fill-rule="evenodd" clip-rule="evenodd" d="M16.9394 3.66675C18.2804 3.66675 19.5704 4.19675 20.5194 5.14775C21.4694 6.09675 22.0004 7.37675 22.0004 8.71675V16.6167C22.0004 19.4067 19.7304 21.6667 16.9394 21.6667H7.0604C4.2694 21.6667 2.0004 19.4067 2.0004 16.6167V8.71675C2.0004 5.92675 4.2594 3.66675 7.0604 3.66675H16.9394ZM18.5304 10.2067L18.6104 10.1267C18.8494 9.83675 18.8494 9.41675 18.5994 9.12675C18.4604 8.97775 18.2694 8.88675 18.0704 8.86675C17.8604 8.85575 17.6604 8.92675 17.5094 9.06675L13.0004 12.6667C12.4204 13.1477 11.5894 13.1477 11.0004 12.6667L6.5004 9.06675C6.1894 8.83675 5.7594 8.86675 5.5004 9.13675C5.2304 9.40675 5.2004 9.83675 5.4294 10.1367L5.5604 10.2667L10.1104 13.8167C10.6704 14.2567 11.3494 14.4967 12.0604 14.4967C12.7694 14.4967 13.4604 14.2567 14.0194 13.8167L18.5304 10.2067Z" fill="url(#paint0_linear_2433_29709)"/>
<defs>
<linearGradient id="paint0_linear_2433_29709" x1="22.0004" y1="21.6667" x2="-1.37265" y2="14.137" gradientUnits="userSpaceOnUse">
<stop stop-color="#246BFD"/>
<stop offset="1" stop-color="#5089FF"/>
</linearGradient>
</defs>
</svg>
