<svg width="170" height="170" viewBox="0 0 170 170" fill="none" xmlns="http://www.w3.org/2000/svg">
<path d="M139.2 140.5C141.432 140.894 143.402 140.763 145.371 141.288C146.553 141.682 147.603 142.207 147.866 143.52C148.128 144.964 147.341 146.015 146.159 146.803C144.977 147.59 143.795 147.722 142.351 147.722C112.808 148.247 83.1334 148.51 53.5902 147.722C44.5302 147.459 35.4703 147.328 26.4104 146.54C24.4408 146.409 22.34 145.883 20.5018 145.227C16.4314 143.783 14.4618 140.5 14.0679 136.43C13.4114 130.258 13.0175 124.087 12.4923 117.916C11.8357 110.169 11.0479 102.422 10.3914 94.5439C9.86619 88.2414 9.34098 81.8075 8.68446 75.5049C8.42185 72.7476 8.29055 69.8589 7.89664 67.1015C7.24012 60.799 8.94707 55.1529 12.6236 50.1634C13.5427 48.8504 14.8557 47.6686 16.4313 47.2747C17.6131 46.8808 17.7444 46.2243 17.7444 45.1739C17.7444 43.3356 17.6131 41.4974 18.1383 39.6592C19.4513 34.9322 23.9156 31.5184 28.7738 31.6497C50.9641 31.9123 73.023 32.3062 95.2133 32.5688C106.111 32.7001 117.01 32.8314 127.908 32.9627C134.998 33.094 139.725 37.8209 139.856 44.9113C139.856 49.7695 139.856 54.6277 139.856 59.3546C139.856 60.4051 140.25 60.6677 141.169 60.799C146.684 61.8494 149.835 66.5763 149.048 72.0911C148.522 75.7675 148.26 79.444 147.866 83.1205C147.341 88.1101 146.815 92.9683 146.422 97.9578C146.028 101.634 145.765 105.311 145.371 108.856C144.846 113.714 144.321 118.704 143.927 123.562C143.664 125.925 143.402 128.289 143.27 130.784C143.008 134.591 142.351 137.874 139.2 140.5ZM80.1134 138.793C97.8394 138.793 115.565 138.793 133.291 138.793C136.311 138.793 138.806 136.824 139.2 133.804C139.725 129.339 140.119 125.006 140.513 120.542C141.038 115.684 141.432 110.957 141.957 106.099C142.482 100.321 143.139 94.4126 143.664 88.6353C144.189 82.8579 144.715 76.9493 145.371 71.1719C145.634 68.2833 144.452 66.1824 141.826 65.132C140.644 64.6068 139.462 64.6068 138.281 64.6068C126.201 64.6068 114.121 64.6068 102.041 64.6068C97.7081 64.6068 94.0316 63.1624 91.2742 59.7485C89.9612 58.1729 88.3855 56.5973 87.0725 55.0216C84.3151 51.6077 80.7699 50.1634 76.3056 50.1634C62.2562 50.2947 48.2067 50.1634 34.1573 50.1634C29.1678 50.1634 24.1782 50.1634 19.1887 50.2947C16.694 50.2947 14.5931 52.133 14.0679 54.6277C13.674 56.466 14.0679 58.4355 14.1992 60.2738C14.5931 64.4755 14.987 68.5459 15.2496 72.7476C15.6435 76.6867 15.9061 80.6258 16.3 84.4336C16.8253 89.817 17.3505 95.3317 17.7444 100.715C18.2696 105.967 18.6635 111.219 19.0574 116.472C19.5826 121.855 20.1078 127.238 20.5018 132.622C20.7644 136.561 22.8652 138.793 26.8043 138.793C44.9242 138.793 62.5188 138.793 80.1134 138.793ZM78.4065 36.114C61.8623 35.8514 45.3181 35.5888 28.7738 35.4575C25.0974 35.4575 22.4713 37.5583 21.4209 41.1035C21.027 42.4165 21.2896 43.7296 21.1583 45.0426C21.027 46.4869 21.4209 46.8808 22.8652 46.8808C40.8538 46.8808 58.9736 46.8808 76.9621 46.8808C81.8204 46.8808 85.7595 48.7191 89.042 52.2643C90.6177 53.9712 92.062 55.6782 93.6376 57.3851C95.6072 59.6173 98.102 60.9303 101.253 60.9303C112.414 60.9303 123.575 60.9303 134.736 60.9303C135.917 60.9303 136.18 60.5364 136.049 59.4859C136.049 54.2338 136.049 49.113 136.049 43.8609C136.049 43.3356 136.049 42.8104 135.917 42.2852C134.998 38.6087 132.11 36.6392 127.777 36.6392C111.364 36.5079 94.8194 36.3766 78.4065 36.114Z" fill="#007AFF"/>
<path d="M147.997 46.7491C147.735 46.7491 147.341 46.7491 146.947 46.7491C146.028 46.6178 145.371 46.2239 145.371 45.1734C145.371 44.123 145.765 43.4665 146.815 43.3352C148.654 43.2039 150.492 42.9413 152.33 42.81C154.694 42.6787 156.926 42.5474 159.289 42.4161C160.471 42.2848 161.259 42.9413 161.39 43.9917C161.521 45.1734 160.734 45.8299 159.421 45.9612C155.613 46.0925 151.805 46.4865 147.997 46.7491Z" fill="#007AFF"/>
<path d="M156.401 30.3363C156.532 31.1242 156.007 31.6494 155.35 32.0433C151.805 34.2754 148.26 36.5076 144.715 38.8711C143.796 39.5276 142.877 39.3963 142.22 38.4771C141.564 37.558 141.958 36.6389 142.745 36.1137C146.422 33.7502 150.098 31.3868 153.906 29.0233C155.088 28.2355 156.401 29.0233 156.401 30.3363Z" fill="#007AFF"/>
<path d="M142.482 21.9331C143.795 21.9331 144.583 23.1148 143.795 24.1653C141.826 26.7913 140.382 29.68 139.2 32.8313C138.806 33.7504 138.018 34.1443 136.968 33.7504C136.049 33.3565 135.655 32.5687 136.049 31.5182C137.23 28.367 138.806 25.4783 140.907 22.8522C141.301 22.1957 141.957 21.9331 142.482 21.9331Z" fill="#007AFF"/>
<path d="M78.8007 108.725C87.7294 108.856 95.4762 111.876 101.91 118.047C103.223 119.36 103.486 120.279 102.567 121.198C101.779 121.986 100.728 121.855 99.4153 120.673C93.7693 115.29 87.0728 112.532 79.3259 112.401C70.7912 112.27 63.4383 115.29 57.5296 121.592C57.0044 122.249 56.4792 122.905 55.4288 122.774C54.6409 122.643 54.1157 122.118 53.8531 121.461C53.5905 120.673 53.9844 120.017 54.5096 119.491C59.2366 114.371 64.8826 111.088 71.7104 109.644C73.9425 108.856 76.306 108.725 78.8007 108.725Z" fill="#007AFF"/>
<path d="M53.5899 96.5132C52.8021 96.5132 52.2769 95.988 51.883 95.594C50.4386 94.1497 48.9943 92.7054 47.5499 91.261C46.8934 90.6045 46.4995 90.4732 45.843 91.261C44.1361 93.0993 42.2978 94.8062 40.4596 96.6445C39.4091 97.6949 38.2274 97.9575 37.4396 97.1697C36.5205 96.2506 36.6518 95.2001 37.8335 94.0184C39.5404 92.1802 41.3787 90.4732 43.2169 88.635C43.8735 87.9785 43.8735 87.5845 43.2169 87.0593C41.3787 85.2211 39.5404 83.3828 37.7022 81.6759C36.7831 80.7568 36.3892 79.8377 37.3083 78.7872C38.0961 77.8681 39.1465 77.9994 40.3283 79.0498C42.1665 80.8881 44.0048 82.595 45.843 84.5646C46.4995 85.2211 46.8934 85.2211 47.4186 84.5646C49.5195 82.4637 51.6203 80.3629 53.5899 78.3933C54.2464 77.7368 55.0342 77.2116 56.0847 77.8681C57.2664 78.5246 57.3977 79.8377 56.216 81.0194C54.1151 83.1202 52.1456 85.2211 50.0447 87.1906C49.3882 87.8472 49.2569 88.2411 50.0447 88.8976C51.7517 90.4732 53.196 92.0489 54.7716 93.6245C55.4281 94.281 55.5594 94.9375 55.1655 95.7253C54.9029 96.2506 54.3777 96.6445 53.5899 96.5132Z" fill="#007AFF"/>
<path d="M98.1019 74.9795C98.8897 74.9795 99.4149 75.3734 99.9401 75.8986C101.778 77.7369 103.617 79.4438 105.324 81.4133C105.98 82.0699 106.374 82.0699 106.899 81.4133C108.212 79.969 109.657 78.656 110.97 77.3429C111.889 76.4238 112.808 76.0299 113.858 77.0803C114.909 77.9995 114.515 79.0499 113.596 79.969C112.283 81.282 110.838 82.7264 109.525 84.0394C108.869 84.6959 108.869 84.9585 109.525 85.6151C111.232 87.1907 112.808 88.8976 114.515 90.6046C114.777 90.8672 115.171 91.1298 115.434 91.5237C116.09 92.3115 116.222 93.2306 115.434 94.0185C114.515 94.8063 113.596 94.675 112.808 93.8871C110.838 92.0489 109 90.2107 107.162 88.2411C106.505 87.5846 106.111 87.4533 105.455 88.2411C103.879 89.9481 102.172 91.5237 100.597 93.0993C99.6775 94.0185 98.7584 94.5437 97.5766 93.4932C96.6575 92.7054 96.7888 91.655 97.9706 90.342C99.2836 89.0289 100.728 87.5846 102.041 86.2716C103.617 84.6959 103.617 84.6959 102.041 83.2516C100.334 81.5446 98.7584 79.969 97.0514 78.2621C96.3949 77.6056 96.2636 76.949 96.5262 76.0299C96.7888 75.3734 97.4453 75.1108 98.1019 74.9795Z" fill="#007AFF"/>
</svg>
