<svg width="20" height="20" viewBox="0 0 20 20" fill="none" xmlns="http://www.w3.org/2000/svg">
<path fill-rule="evenodd" clip-rule="evenodd" d="M11.45 2.88017H14.52C18.21 2.88017 20.01 4.85017 20 8.89017V13.7602C20 17.6202 17.62 20.0002 13.75 20.0002H6.24C2.39 20.0002 0 17.6202 0 13.7502V6.24017C0 2.10017 1.84 0.000170661 5.47 0.000170661H7.05C7.981 -0.00982934 8.85 0.420171 9.42 1.15017L10.3 2.32017C10.58 2.67017 11 2.88017 11.45 2.88017ZM5.36998 13.2901H14.63C15.04 13.2901 15.37 12.9501 15.37 12.5401C15.37 12.1201 15.04 11.7901 14.63 11.7901H5.36998C4.94998 11.7901 4.61998 12.1201 4.61998 12.5401C4.61998 12.9501 4.94998 13.2901 5.36998 13.2901Z" fill="url(#paint0_linear_7140_12031)"/>
<defs>
<linearGradient id="paint0_linear_7140_12031" x1="20" y1="20.0002" x2="-3.79824" y2="13.1001" gradientUnits="userSpaceOnUse">
<stop stop-color="#246BFD"/>
<stop offset="1" stop-color="#5089FF"/>
</linearGradient>
</defs>
</svg>
