<svg width="25" height="25" viewBox="0 0 25 25" fill="none" xmlns="http://www.w3.org/2000/svg">
<g clip-path="url(#clip0_7093_9357)">
<path d="M24.0079 12.4742C24.0079 11.4909 23.9295 10.7734 23.7598 10.0293H12.7295V14.4673H19.2041C19.0736 15.5702 18.3687 17.2311 16.8022 18.3472L16.7803 18.4958L20.2678 21.246L20.5095 21.2705C22.7286 19.1844 24.0079 16.1149 24.0079 12.4742Z" fill="#4285F4"/>
<path d="M12.7295 24.1678C15.9015 24.1678 18.5644 23.1048 20.5095 21.2711L16.8022 18.3478C15.8102 19.0521 14.4787 19.5437 12.7295 19.5437C9.62275 19.5437 6.98593 17.4576 6.04597 14.5742L5.9082 14.5861L2.28175 17.443L2.23432 17.5772C4.16624 21.4837 8.13457 24.1678 12.7295 24.1678Z" fill="#34A853"/>
<path d="M6.0461 14.5738C5.79809 13.8297 5.65456 13.0324 5.65456 12.2086C5.65456 11.3847 5.79809 10.5875 6.03306 9.84342L6.02649 9.68494L2.3546 6.78223L2.23446 6.84039C1.43822 8.46149 0.981339 10.2819 0.981339 12.2086C0.981339 14.1353 1.43822 15.9556 2.23446 17.5767L6.0461 14.5738Z" fill="#FBBC05"/>
<path d="M12.7295 4.87403C14.9355 4.87403 16.4236 5.84401 17.2721 6.65461L20.5877 3.35928C18.5514 1.4326 15.9015 0.25 12.7295 0.25C8.13456 0.25 4.16624 2.93406 2.23432 6.84056L6.03292 9.84359C6.98592 6.9602 9.62274 4.87403 12.7295 4.87403Z" fill="#EB4335"/>
</g>
<defs>
<clipPath id="clip0_7093_9357">
<rect width="23.04" height="24" fill="white" transform="translate(0.980003 0.25)"/>
</clipPath>
</defs>
</svg>
