<svg width="20" height="20" viewBox="0 0 20 20" fill="none" xmlns="http://www.w3.org/2000/svg">
<path d="M7.53477 18.7733V15.7156C7.53477 14.9351 8.17217 14.3023 8.95843 14.3023H11.8326C12.2102 14.3023 12.5723 14.4512 12.8393 14.7163C13.1063 14.9813 13.2563 15.3408 13.2563 15.7156V18.7733C13.2539 19.0978 13.3821 19.4099 13.6124 19.6402C13.8427 19.8705 14.156 20 14.4829 20H16.4438C17.3596 20.0023 18.2387 19.6428 18.8872 19.0008C19.5356 18.3588 19.9 17.487 19.9 16.5778V7.86686C19.9 7.13246 19.5721 6.43584 19.0046 5.96467L12.334 0.675869C11.1737 -0.251438 9.51111 -0.221498 8.38539 0.746979L1.86701 5.96467C1.27273 6.42195 0.917546 7.12064 0.899994 7.86686V16.5689C0.899994 18.4639 2.44738 20 4.35617 20H6.27228C6.95122 20 7.50299 19.4562 7.50791 18.7822L7.53477 18.7733Z" fill="#007AFF"/>
</svg>
