<svg width="25" height="24" viewBox="0 0 25 24" fill="none" xmlns="http://www.w3.org/2000/svg">
<mask id="mask0_7180_8366" style="mask-type:luminance" maskUnits="userSpaceOnUse" x="2" y="1" width="21" height="22">
<path fill-rule="evenodd" clip-rule="evenodd" d="M2.39999 1H22.8998V22.505H2.39999V1Z" fill="white"/>
</mask>
<g mask="url(#mask0_7180_8366)">
<path fill-rule="evenodd" clip-rule="evenodd" d="M14.1168 15.2913C15.3208 15.2913 16.3008 16.2643 16.3008 17.4603V20.5362C16.3008 20.7932 16.5068 20.9992 16.7708 21.0052H18.6768C20.1788 21.0052 21.3998 19.7993 21.3998 18.3173V9.59325C21.3928 9.08325 21.1498 8.60325 20.7328 8.28425L14.1398 3.02625C13.2548 2.32525 12.0168 2.32525 11.1288 3.02825L4.58078 8.28225C4.14778 8.61125 3.90478 9.09125 3.89978 9.61025V18.3173C3.89978 19.7993 5.12078 21.0052 6.62278 21.0052H8.54678C8.81778 21.0052 9.03778 20.7902 9.03778 20.5262C9.03778 20.4682 9.04478 20.4102 9.05678 20.3552V17.4603C9.05678 16.2713 10.0308 15.2993 11.2258 15.2913H14.1168ZM18.6768 22.5053H16.7528C15.6508 22.4793 14.8008 21.6143 14.8008 20.5363V17.4603C14.8008 17.0913 14.4938 16.7913 14.1168 16.7913H11.2308C10.8618 16.7933 10.5568 17.0943 10.5568 17.4603V20.5263C10.5568 20.6013 10.5468 20.6733 10.5258 20.7413C10.4178 21.7313 9.57178 22.5053 8.54678 22.5053H6.62278C4.29378 22.5053 2.39978 20.6262 2.39978 18.3172V9.60325C2.40978 8.60925 2.86778 7.69925 3.65878 7.10025L10.1938 1.85525C11.6328 0.71525 13.6378 0.71525 15.0738 1.85325L21.6558 7.10325C22.4288 7.69225 22.8868 8.60025 22.8998 9.58225V18.3172C22.8998 20.6262 21.0058 22.5053 18.6768 22.5053Z" fill="#9E9E9E"/>
</g>
</svg>
