<svg width="24" height="24" viewBox="0 0 24 24" fill="none" xmlns="http://www.w3.org/2000/svg">
<path fill-rule="evenodd" clip-rule="evenodd" d="M7.66618 22H16.3328C19.7231 22 22 19.6219 22 16.0833V7.91672C22 4.37811 19.7231 2 16.3338 2H7.66618C4.2769 2 2 4.37811 2 7.91672V16.0833C2 19.6219 4.2769 22 7.66618 22ZM8.49889 11C7.12025 11 6.00003 9.8783 6.00003 8.50003C6.00003 7.12176 7.12025 6.00003 8.49889 6.00003C9.87653 6.00003 10.9978 7.12176 10.9978 8.50003C10.9978 9.8783 9.87653 11 8.49889 11ZM19.8208 14.934C20.1557 15.7926 19.9817 16.8246 19.6237 17.6749C19.1994 18.6863 18.3869 19.452 17.3632 19.7864C16.9087 19.935 16.432 20 15.9564 20H7.52867C6.69002 20 5.94791 19.7988 5.33953 19.4242C4.95842 19.1889 4.89104 18.6461 5.17361 18.2941C5.64623 17.7059 6.11282 17.1156 6.58343 16.5201C7.4804 15.3808 8.08476 15.0506 8.75648 15.3406C9.02899 15.4603 9.30251 15.6399 9.58407 15.8297C10.3342 16.3396 11.377 17.0403 12.7506 16.2797C13.6906 15.7532 14.2358 14.8502 14.7106 14.0637L14.7185 14.0506C14.7522 13.9955 14.7855 13.9404 14.8187 13.8854L14.8188 13.8852C14.9783 13.6212 15.1358 13.3607 15.3138 13.1208C15.5371 12.8205 16.3647 11.8813 17.4366 12.5501C18.1194 12.9711 18.6936 13.5408 19.308 14.1507C19.5423 14.3839 19.7092 14.6491 19.8208 14.934Z" fill="url(#paint0_linear_2433_28300)"/>
<defs>
<linearGradient id="paint0_linear_2433_28300" x1="22" y1="22" x2="-1.7982" y2="15.0999" gradientUnits="userSpaceOnUse">
<stop stop-color="#246BFD"/>
<stop offset="1" stop-color="#5089FF"/>
</linearGradient>
</defs>
</svg>
