
<svg width="15" height="17" viewBox="0 0 15 17" fill="none" xmlns="http://www.w3.org/2000/svg">
<path fill-rule="evenodd" clip-rule="evenodd" d="M7.20875 6.08325C6.40459 6.08325 5.75042 6.73742 5.75042 7.54242C5.75042 8.34659 6.40459 8.99992 7.20875 8.99992C8.01292 8.99992 8.66709 8.34659 8.66709 7.54242C8.66709 6.73742 8.01292 6.08325 7.20875 6.08325ZM7.20875 10.2499C5.71542 10.2499 4.50042 9.03575 4.50042 7.54242C4.50042 6.04825 5.71542 4.83325 7.20875 4.83325C8.70209 4.83325 9.91709 6.04825 9.91709 7.54242C9.91709 9.03575 8.70209 10.2499 7.20875 10.2499Z" fill="#9E9E9E"/>
<mask id="mask0_7111_31879" style="mask-type:luminance" maskUnits="userSpaceOnUse" x="0" y="0" width="15" height="17">
<path fill-rule="evenodd" clip-rule="evenodd" d="M0.333334 0.666626H14.0829V16.9166H0.333334V0.666626Z" fill="white"/>
</mask>
<g mask="url(#mask0_7111_31879)">
<path fill-rule="evenodd" clip-rule="evenodd" d="M7.20792 1.91663C4.10625 1.91663 1.58292 4.46413 1.58292 7.59413C1.58292 11.5766 6.26958 15.4566 7.20792 15.6633C8.14625 15.4558 12.8329 11.5758 12.8329 7.59413C12.8329 4.46413 10.3096 1.91663 7.20792 1.91663ZM7.20792 16.9166C5.71292 16.9166 0.332918 12.29 0.332918 7.59413C0.332918 3.77413 3.41708 0.666626 7.20792 0.666626C10.9988 0.666626 14.0829 3.77413 14.0829 7.59413C14.0829 12.29 8.70292 16.9166 7.20792 16.9166Z" fill="#9E9E9E"/>
</g>
</svg>
