<svg width="22" height="18" viewBox="0 0 22 18" fill="none" xmlns="http://www.w3.org/2000/svg">
<path d="M19.256 6.59212H11.2333C11.168 6.59212 11.124 6.66412 11.1546 6.72366C11.396 7.20412 11.5173 7.7815 11.5173 8.45166C11.5173 9.1855 11.368 9.87919 11.0733 10.5397C10.78 11.2001 10.3466 11.7387 9.78531 12.1389C9.22397 12.5501 8.56131 12.7509 7.80131 12.7509C6.89331 12.7509 6.18131 12.4615 5.65731 11.8786C5.13331 11.3012 4.87731 10.5244 4.87731 9.5455C4.87731 8.81858 5.02131 8.12489 5.32131 7.45889C5.61464 6.79704 6.04797 6.26396 6.61997 5.85827C7.18797 5.45258 7.84397 5.24766 8.59331 5.24766H17.0573C18.044 5.24766 19.7253 5.0095 20.1933 2.50196C20.204 2.44519 20.1613 2.39258 20.1066 2.39258H8.68931C7.36264 2.39258 6.17597 2.7415 5.13331 3.43658C4.08531 4.13027 3.27197 5.04689 2.68931 6.18089C2.09997 7.3135 1.80664 8.51396 1.80664 9.76842C1.80664 11.0229 2.07331 12.0226 2.60264 12.9004C3.13197 13.7783 3.84797 14.4498 4.74664 14.9123C5.63997 15.3775 6.62931 15.606 7.70397 15.606C9.03064 15.606 10.2173 15.2612 11.26 14.5675C12.3026 13.8683 13.12 12.9572 13.704 11.819C14.1 11.0575 14.3626 10.2697 14.4853 9.44858C14.5453 9.07612 14.576 8.6995 14.58 8.31735C14.58 8.26889 14.616 8.23012 14.6626 8.22735C14.7106 8.22458 14.752 8.26196 14.7546 8.31181C14.78 8.80889 15.032 9.44858 16.2066 9.44858C17.192 9.44858 18.8746 9.21042 19.3426 6.70289C19.3533 6.6475 19.3106 6.5935 19.256 6.5935V6.59212Z" fill="white"/>
</svg>
