<svg width="242" height="50" viewBox="0 0 242 50" fill="none" xmlns="http://www.w3.org/2000/svg">
<path d="M230.176 23.847C229.087 29.5063 225.172 30.0438 222.879 30.0438C220.146 30.0438 219.559 28.6032 219.5 27.4782C219.494 27.3657 219.398 27.2813 219.286 27.2876C219.178 27.2938 219.094 27.3813 219.094 27.4907C219.084 28.3532 219.01 29.2032 218.873 30.0438C218.585 31.897 217.977 33.6751 217.055 35.3939C215.7 37.9626 213.798 40.0157 211.368 41.597C208.942 43.1626 206.181 43.9407 203.094 43.9407C200.593 43.9407 198.291 43.4251 196.212 42.3751C194.121 41.3345 192.455 39.8189 191.223 37.8345C189.992 35.8563 189.371 33.5001 189.371 30.7657C189.371 28.0313 190.054 25.2282 191.425 22.6688C192.781 20.1126 194.67 18.0438 197.112 16.4751C199.538 14.9095 202.3 14.1188 205.387 14.1188H231.954C232.081 14.1188 232.18 14.2376 232.156 14.3657C231.067 20.0251 227.154 20.5626 224.858 20.5626H205.163C203.42 20.5626 201.89 21.0251 200.571 21.9407C199.24 22.8563 198.232 24.0595 197.55 25.5532C196.851 27.0563 196.516 28.622 196.516 30.2626C196.516 32.472 197.115 34.2251 198.331 35.5282C199.551 36.8439 201.207 37.497 203.32 37.497C205.086 37.497 206.628 37.0438 207.937 36.1157C209.243 35.2157 210.251 33.997 210.934 32.5063C211.62 31.0157 211.967 29.4501 211.967 27.7938C211.967 26.2813 211.685 24.9782 211.123 23.8938C211.052 23.7595 211.154 23.597 211.306 23.597H229.974C230.102 23.597 230.201 23.7157 230.176 23.8438V23.847ZM25.1649 37.1095H21.718C20.5576 37.1095 19.7757 36.9126 19.3786 36.522C18.9784 36.1282 18.907 35.4095 19.1614 34.3657L21.9072 21.0251H28.5746C28.6708 21.0251 28.7546 20.9563 28.7732 20.8595L29.9397 15.1063C29.9646 14.9782 29.8684 14.8595 29.7412 14.8595H23.1731L24.9322 6.30635C24.957 6.17822 24.8609 6.05947 24.7336 6.05947H18.4013C18.3051 6.05947 18.2214 6.12822 18.2027 6.22197L16.4157 14.8595H11.2158C11.1196 14.8595 11.0358 14.9282 11.0172 15.0251L9.85065 20.7782C9.82583 20.9063 9.92201 21.0251 10.0492 21.0251H15.1405L12.3575 34.4782C11.9201 36.6095 11.8766 38.3188 12.221 39.6063C12.5654 40.8938 13.3627 41.8188 14.6162 42.3813C15.8665 42.9407 17.6908 43.222 20.086 43.222H23.9487C24.0449 43.222 24.1286 43.1532 24.1473 43.0595L25.3666 37.3626C25.3945 37.2345 25.2983 37.1126 25.168 37.1126L25.1649 37.1095ZM60.8041 15.1032L55.0116 43.0564C54.993 43.1532 54.9092 43.2189 54.813 43.2189H48.4248C48.2945 43.2189 48.1983 43.1001 48.2263 42.972L48.9367 39.5751H48.6575C48.5924 39.5751 48.5334 39.6063 48.4962 39.6563C47.4196 41.1095 46.1537 42.1845 44.6924 42.8814C43.2032 43.5907 41.5713 43.947 39.7935 43.947C37.5441 43.947 35.5275 43.4345 33.7497 42.4063C31.9719 41.3782 30.5727 39.922 29.5581 38.0345C28.5405 36.147 28.0317 33.9126 28.0317 31.3345C28.0317 28.4595 28.6584 25.6845 29.9087 23.0095C31.1591 20.3376 32.9306 18.1876 35.2172 16.5626C37.5038 14.9376 40.0789 14.1251 42.9457 14.1251C45.1237 14.1251 47.0845 14.5813 48.8251 15.497C50.5315 16.3938 51.8004 17.7282 52.635 19.5001C52.6691 19.572 52.7405 19.6188 52.8181 19.6188H52.9049C53.0011 19.6188 53.0849 19.5501 53.1035 19.4563L54.0156 15.0188C54.0343 14.922 54.118 14.8563 54.2142 14.8563H60.6024C60.7327 14.8563 60.8289 14.9751 60.8009 15.1032H60.8041ZM51.1675 27.6938C51.1675 25.4876 50.5408 23.7407 49.2904 22.4532C48.0401 21.1657 46.3058 20.5188 44.0936 20.5188C42.2445 20.5188 40.6374 20.9938 39.2754 21.947C37.9133 22.9001 36.8802 24.1251 36.1728 25.6188C35.4654 27.1126 35.1117 28.7032 35.1117 30.3845C35.1117 32.5907 35.7571 34.3376 37.0446 35.6251C38.3322 36.9157 40.0665 37.5595 42.2445 37.5595C44.0936 37.5595 45.7008 37.0845 47.0628 36.1314C48.4248 35.1782 49.4487 33.9564 50.1405 32.4595C50.8293 30.9657 51.1737 29.3751 51.1737 27.697L51.1675 27.6938ZM81.8953 29.4032C80.3874 28.0407 78.1133 27.022 75.0634 26.347C73.6114 26.0126 72.4604 25.6751 71.6072 25.3376C70.754 25.0001 70.1397 24.6282 69.758 24.2157C69.4044 23.8345 69.2151 23.3907 69.1903 22.8813C69.1468 22.0532 69.5936 21.2657 70.3165 20.8688C71.0208 20.4845 71.9857 20.2907 73.2143 20.2907C74.9548 20.2907 76.3789 20.6282 77.4865 21.3001C78.5321 21.9376 79.1495 22.7407 79.3357 23.7095C79.3543 23.8063 79.435 23.8813 79.5342 23.8813H85.9038C86.0186 23.8813 86.1117 23.7845 86.1086 23.672C86.0713 21.8876 85.5439 20.2782 84.5325 18.8376C83.4776 17.3438 82.0101 16.1845 80.1237 15.3626C78.2374 14.5407 76.078 14.1282 73.6456 14.1282C71.5048 14.1282 69.5812 14.4938 67.8748 15.222C66.1684 15.9501 64.8064 16.9782 63.7918 18.3063C62.7773 19.6345 62.2685 21.1938 62.2685 22.9876C62.2685 24.4095 62.6035 25.6595 63.2768 26.7438C63.9469 27.8282 64.9801 28.7532 66.3794 29.5188C67.7755 30.2845 69.5812 30.9313 71.7964 31.4532C73.1398 31.7532 74.1916 32.0688 74.9548 32.4063C75.7181 32.7407 76.261 33.1157 76.5868 33.5282C76.9126 33.9407 77.077 34.4063 77.077 34.9282C77.077 35.9001 76.6675 36.6188 75.8515 37.0845C75.0355 37.5532 73.9186 37.7845 72.5038 37.7845C70.5802 37.7845 69.0289 37.4126 67.85 36.6626C66.7331 35.9564 66.1125 35.047 65.9884 33.9345C65.976 33.8282 65.8923 33.747 65.7868 33.747H59.4203C59.3117 33.747 59.2186 33.8345 59.2155 33.947C59.1473 35.847 59.6127 37.547 60.6148 39.0438C61.6479 40.5938 63.1465 41.8001 65.1073 42.6595C67.065 43.5188 69.3702 43.947 72.0198 43.947C74.2692 43.947 76.32 43.5845 78.1722 42.8532C80.0244 42.1251 81.4826 41.0595 82.5561 39.6595C83.6265 38.2595 84.1602 36.6032 84.1602 34.697C84.1602 32.5313 83.4062 30.7657 81.9015 29.4001L81.8953 29.4032ZM105.112 28.597C105.081 28.5251 105.093 28.4407 105.143 28.3782L116.418 15.1938C116.532 15.0595 116.436 14.8532 116.262 14.8532H109.071C109.012 14.8532 108.953 14.8782 108.916 14.9251L99.8374 25.6563C99.7971 25.7032 99.7412 25.7282 99.6823 25.7282H95.8351C95.7048 25.7282 95.6086 25.6095 95.6365 25.4813L99.5737 6.3001C99.5985 6.17197 99.5023 6.05322 99.3751 6.05322H93.0428C92.9466 6.05322 92.8628 6.12197 92.8442 6.21885L85.2988 42.972C85.274 43.1001 85.3702 43.2189 85.4974 43.2189H91.8297C91.9259 43.2189 92.0096 43.1501 92.0283 43.0532L94.2466 32.2282C94.2652 32.1313 94.349 32.0626 94.4452 32.0626H99.3193C99.3999 32.0626 99.4744 32.1095 99.5054 32.1845L104.352 43.097C104.386 43.172 104.457 43.2189 104.538 43.2189H111.277C111.425 43.2189 111.525 43.0657 111.463 42.9282L105.112 28.5938V28.597ZM138.973 15.8376C137.593 14.697 135.725 14.1282 133.367 14.1282C131.626 14.1282 130.094 14.4751 128.769 15.1657C127.469 15.8438 126.321 16.872 125.319 18.2501C125.282 18.3032 125.219 18.3345 125.154 18.3345H125.074C124.943 18.3345 124.847 18.2157 124.875 18.0876L127.289 6.30635C127.314 6.17822 127.218 6.05947 127.09 6.05947H120.758C120.662 6.05947 120.578 6.12822 120.559 6.2251L113.014 42.9782C112.989 43.1063 113.085 43.2251 113.213 43.2251H119.545C119.641 43.2251 119.725 43.1563 119.743 43.0595L123.194 26.2407C123.591 24.447 124.338 23.0438 125.424 22.0376C126.513 21.0282 127.928 20.5251 129.669 20.5251C131.738 20.5251 133.162 21.197 133.941 22.5438C134.72 23.8876 134.912 25.5345 134.512 27.4751L131.35 42.9782C131.325 43.1063 131.422 43.2251 131.549 43.2251H137.881C137.977 43.2251 138.061 43.1564 138.08 43.0626L141.53 26.3001C142.001 24.2064 142.038 22.2282 141.638 20.3595C141.238 18.4907 140.348 16.9876 138.97 15.847L138.973 15.8376ZM170.486 34.1126C170.067 35.847 169.251 37.4438 168.041 38.9032C166.769 40.4376 165.137 41.6595 163.142 42.5751C161.147 43.4907 158.951 43.947 156.555 43.947C154.16 43.947 151.827 43.422 149.776 42.3782C147.725 41.3345 146.103 39.8282 144.905 37.8657C143.708 35.9032 143.109 33.5782 143.109 30.8876C143.109 28.047 143.782 25.3313 145.122 22.7313C146.466 20.1345 148.343 18.0501 150.757 16.4813C153.167 14.9126 155.864 14.1251 158.839 14.1251C161.814 14.1251 164.628 14.9095 166.84 16.4813C169.053 18.0501 170.57 20.1157 171.386 22.6751C172.186 25.1876 172.23 27.8563 171.51 30.6751C171.485 30.7657 171.404 30.8314 171.311 30.8314H149.969C149.978 33.0845 150.602 34.8314 151.846 36.072C153.096 37.3251 154.812 37.9501 156.99 37.9501C158.768 37.9501 160.229 37.5501 161.371 36.7439C162.475 35.9689 163.282 35.0438 163.794 33.972C163.828 33.9001 163.896 33.8563 163.977 33.8563H170.284C170.418 33.8563 170.517 33.9813 170.486 34.1126ZM150.844 25.9001H165.565C165.447 24.9876 165.193 24.1657 164.802 23.4345C164.237 22.3876 163.431 21.5751 162.379 20.9938C161.327 20.4157 160.074 20.1251 158.622 20.1251C156.627 20.1251 154.967 20.6938 153.642 21.8345C152.339 22.9563 151.408 24.3095 150.844 25.9001ZM191.102 21.3657L192.486 14.8251C192.514 14.697 192.415 14.5751 192.288 14.5751H190.308C188.53 14.5751 187.113 14.922 186.061 15.6126C185.034 16.2876 184.146 17.4345 183.396 19.0532C183.362 19.1251 183.29 19.172 183.213 19.172H183.16C183.03 19.172 182.933 19.0501 182.961 18.922L183.78 15.1032C183.808 14.9751 183.712 14.8532 183.582 14.8532H177.249C177.153 14.8532 177.07 14.922 177.051 15.0157L171.203 42.9688C171.175 43.097 171.274 43.2157 171.401 43.2157H177.733C177.83 43.2157 177.913 43.147 177.932 43.0532L181.218 27.3532C181.581 25.4845 182.245 24.047 183.206 23.0376C184.168 22.0282 185.484 21.5251 187.153 21.5251H190.907C191.003 21.5251 191.087 21.4563 191.106 21.3626L191.102 21.3657Z" fill="#007AFF"/>
</svg>
