<svg width="28" height="28" viewBox="0 0 28 28" fill="none" xmlns="http://www.w3.org/2000/svg">
<path fill-rule="evenodd" clip-rule="evenodd" d="M13.9999 4.08398C8.53175 4.08398 4.08325 8.53248 4.08325 14.0007C4.08325 19.4688 8.53175 23.9173 13.9999 23.9173C19.4681 23.9173 23.9166 19.4688 23.9166 14.0007C23.9166 8.53248 19.4681 4.08398 13.9999 4.08398ZM13.9999 25.6673C7.56692 25.6673 2.33325 20.4337 2.33325 14.0007C2.33325 7.56765 7.56692 2.33398 13.9999 2.33398C20.4329 2.33398 25.6666 7.56765 25.6666 14.0007C25.6666 20.4337 20.4329 25.6673 13.9999 25.6673Z" fill="#212121"/>
<path fill-rule="evenodd" clip-rule="evenodd" d="M18.6061 15.1829C17.9609 15.1829 17.4336 14.6614 17.4336 14.0163C17.4336 13.3711 17.9504 12.8496 18.5944 12.8496H18.6061C19.2513 12.8496 19.7728 13.3711 19.7728 14.0163C19.7728 14.6614 19.2513 15.1829 18.6061 15.1829Z" fill="#212121"/>
<path fill-rule="evenodd" clip-rule="evenodd" d="M13.9282 15.1829C13.283 15.1829 12.7568 14.6614 12.7568 14.0163C12.7568 13.3711 13.2725 12.8496 13.9177 12.8496H13.9282C14.5733 12.8496 15.0948 13.3711 15.0948 14.0163C15.0948 14.6614 14.5733 15.1829 13.9282 15.1829Z" fill="#212121"/>
<path fill-rule="evenodd" clip-rule="evenodd" d="M9.25111 15.1829C8.60595 15.1829 8.07861 14.6614 8.07861 14.0163C8.07861 13.3711 8.59545 12.8496 9.24061 12.8496H9.25111C9.89628 12.8496 10.4178 13.3711 10.4178 14.0163C10.4178 14.6614 9.89628 15.1829 9.25111 15.1829Z" fill="#212121"/>
</svg>
