<svg width="380" height="136" viewBox="0 0 380 136" fill="none" xmlns="http://www.w3.org/2000/svg">
<mask id="mask0_2301_22986" style="mask-type:luminance" maskUnits="userSpaceOnUse" x="152" y="8" width="72" height="84">
<path fill-rule="evenodd" clip-rule="evenodd" d="M152.501 8.38184H223.554V91.1048H152.501V8.38184Z" fill="white"/>
</mask>
<g mask="url(#mask0_2301_22986)">
<path fill-rule="evenodd" clip-rule="evenodd" d="M171.556 14.6318C164.652 14.6318 158.918 20.2235 158.756 27.1193V71.6818C158.602 78.8193 164.227 84.6985 171.293 84.8568H204.893C211.847 84.5693 217.356 78.7902 217.306 71.7068V34.7485L197.993 14.6318H171.606H171.556ZM171.606 91.1068H171.152C160.643 90.8693 152.277 82.1277 152.506 71.6152V27.0443C152.747 16.7068 161.285 8.38184 171.547 8.38184H171.618H199.327C200.177 8.38184 200.989 8.72767 201.581 9.34017L222.685 31.3277C223.243 31.9068 223.556 32.686 223.556 33.4902V71.6818C223.631 82.136 215.489 90.6777 205.018 91.1027L171.606 91.1068Z" fill="#9E9E9E"/>
</g>
<path fill-rule="evenodd" clip-rule="evenodd" d="M220.41 37.4345H208.931C201.306 37.4136 195.106 31.197 195.106 23.5803V11.4595C195.106 9.73447 196.506 8.33447 198.231 8.33447C199.956 8.33447 201.356 9.73447 201.356 11.4595V23.5803C201.356 27.7636 204.76 31.172 208.94 31.1845H220.41C222.135 31.1845 223.535 32.5845 223.535 34.3095C223.535 36.0345 222.135 37.4345 220.41 37.4345Z" fill="#9E9E9E"/>
<path fill-rule="evenodd" clip-rule="evenodd" d="M197.453 67.1182H174.953C173.228 67.1182 171.828 65.7182 171.828 63.9932C171.828 62.2682 173.228 60.8682 174.953 60.8682H197.453C199.178 60.8682 200.578 62.2682 200.578 63.9932C200.578 65.7182 199.178 67.1182 197.453 67.1182Z" fill="#9E9E9E"/>
<path fill-rule="evenodd" clip-rule="evenodd" d="M188.932 51.4849H174.949C173.224 51.4849 171.824 50.0849 171.824 48.3599C171.824 46.6349 173.224 45.2349 174.949 45.2349H188.932C190.657 45.2349 192.057 46.6349 192.057 48.3599C192.057 50.0849 190.657 51.4849 188.932 51.4849Z" fill="#9E9E9E"/>
<path d="M113.174 116.996H115.693L121.387 125.16V116.996H124.346V131H121.865L116.133 122.836V131H113.174V116.996ZM131.094 120.98C131.803 120.98 132.471 121.111 133.096 121.371C133.727 121.632 134.268 121.99 134.717 122.445C135.173 122.895 135.531 123.438 135.791 124.076C136.058 124.708 136.191 125.382 136.191 126.098C136.191 127.055 135.967 127.924 135.518 128.705C135.075 129.486 134.463 130.098 133.682 130.541C132.907 130.977 132.044 131.195 131.094 131.195C129.642 131.195 128.428 130.71 127.451 129.74C126.475 128.77 125.986 127.556 125.986 126.098C125.986 124.639 126.475 123.422 127.451 122.445C128.428 121.469 129.642 120.98 131.094 120.98ZM131.094 123.676C130.423 123.676 129.863 123.907 129.414 124.369C128.971 124.825 128.75 125.401 128.75 126.098C128.75 126.775 128.971 127.344 129.414 127.807C129.863 128.269 130.423 128.5 131.094 128.5C131.751 128.5 132.305 128.269 132.754 127.807C133.203 127.344 133.428 126.775 133.428 126.098C133.428 125.401 133.203 124.825 132.754 124.369C132.311 123.907 131.758 123.676 131.094 123.676ZM147.256 116.996C148.63 116.996 149.762 117.419 150.654 118.266C151.553 119.112 152.002 120.183 152.002 121.479C152.002 122.787 151.553 123.871 150.654 124.73C149.762 125.59 148.63 126.02 147.256 126.02H144.883V131H141.924V116.996H147.256ZM147.256 123.178C147.764 123.178 148.184 123.018 148.516 122.699C148.854 122.374 149.023 121.967 149.023 121.479C149.023 121.01 148.854 120.619 148.516 120.307C148.184 119.994 147.764 119.838 147.256 119.838H144.883V123.178H147.256ZM162.295 125.756C162.295 126.101 162.275 126.436 162.236 126.762H154.941C155.039 127.4 155.316 127.911 155.771 128.295C156.227 128.673 156.784 128.861 157.441 128.861C157.982 128.861 158.421 128.757 158.76 128.549C159.105 128.334 159.316 128.051 159.395 127.699H162.158C161.995 128.754 161.491 129.6 160.645 130.238C159.798 130.876 158.757 131.195 157.52 131.195C156.569 131.195 155.697 130.971 154.902 130.521C154.115 130.066 153.493 129.444 153.037 128.656C152.581 127.862 152.354 126.99 152.354 126.039C152.354 124.613 152.845 123.415 153.828 122.445C154.818 121.469 156.029 120.98 157.461 120.98C158.333 120.98 159.141 121.189 159.883 121.605C160.625 122.022 161.211 122.598 161.641 123.334C162.077 124.07 162.295 124.877 162.295 125.756ZM155.078 124.965H159.355C159.316 124.477 159.102 124.07 158.711 123.744C158.32 123.419 157.861 123.256 157.334 123.256C156.781 123.256 156.309 123.399 155.918 123.686C155.527 123.972 155.247 124.398 155.078 124.965ZM169.355 120.98C170.612 120.98 171.598 121.378 172.314 122.172C173.031 122.96 173.389 124.05 173.389 125.443V131H170.566V125.805C170.566 125.167 170.387 124.652 170.029 124.262C169.678 123.871 169.212 123.676 168.633 123.676C168.047 123.676 167.575 123.871 167.217 124.262C166.865 124.646 166.689 125.16 166.689 125.805V131H163.867V121.176H166.689V122.465C167.34 121.475 168.229 120.98 169.355 120.98ZM182.637 116.996H185.459V131H182.637V129.604C181.921 130.665 180.879 131.195 179.512 131.195C178.678 131.195 177.91 130.967 177.207 130.512C176.51 130.049 175.96 129.428 175.557 128.646C175.153 127.859 174.951 127.003 174.951 126.078C174.951 125.154 175.153 124.301 175.557 123.52C175.96 122.732 176.51 122.113 177.207 121.664C177.91 121.208 178.678 120.98 179.512 120.98C180.879 120.98 181.921 121.514 182.637 122.582V116.996ZM180.176 128.5C180.866 128.5 181.449 128.269 181.924 127.807C182.399 127.338 182.637 126.762 182.637 126.078C182.637 125.401 182.399 124.828 181.924 124.359C181.449 123.891 180.866 123.656 180.176 123.656C179.499 123.656 178.919 123.894 178.438 124.369C177.956 124.838 177.715 125.408 177.715 126.078C177.715 126.755 177.952 127.328 178.428 127.797C178.91 128.266 179.492 128.5 180.176 128.5ZM187.617 116.928C187.956 116.589 188.359 116.42 188.828 116.42C189.297 116.42 189.701 116.589 190.039 116.928C190.378 117.26 190.547 117.657 190.547 118.119C190.547 118.588 190.378 118.992 190.039 119.33C189.701 119.669 189.297 119.838 188.828 119.838C188.359 119.838 187.956 119.669 187.617 119.33C187.279 118.992 187.109 118.588 187.109 118.119C187.109 117.657 187.279 117.26 187.617 116.928ZM187.422 121.176H190.244V131H187.422V121.176ZM197.734 120.98C198.991 120.98 199.977 121.378 200.693 122.172C201.41 122.96 201.768 124.05 201.768 125.443V131H198.945V125.805C198.945 125.167 198.766 124.652 198.408 124.262C198.057 123.871 197.591 123.676 197.012 123.676C196.426 123.676 195.954 123.871 195.596 124.262C195.244 124.646 195.068 125.16 195.068 125.805V131H192.246V121.176H195.068V122.465C195.719 121.475 196.608 120.98 197.734 120.98ZM211.016 121.156H213.838V130.58C213.838 131.485 213.61 132.279 213.154 132.963C212.699 133.646 212.087 134.164 211.318 134.516C210.557 134.867 209.701 135.043 208.75 135.043C208.346 135.043 207.939 135.014 207.529 134.955C207.126 134.896 206.689 134.783 206.221 134.613C205.752 134.444 205.339 134.229 204.98 133.969C204.622 133.708 204.316 133.354 204.062 132.904C203.809 132.462 203.665 131.954 203.633 131.381H206.455C206.494 131.804 206.722 132.13 207.139 132.357C207.555 132.585 208.06 132.699 208.652 132.699C209.284 132.699 209.834 132.51 210.303 132.133C210.778 131.755 211.016 131.277 211.016 130.697V129.281C210.312 130.31 209.271 130.824 207.891 130.824C207.057 130.824 206.289 130.603 205.586 130.16C204.889 129.717 204.339 129.118 203.936 128.363C203.532 127.608 203.33 126.788 203.33 125.902C203.33 125.01 203.532 124.187 203.936 123.432C204.339 122.676 204.889 122.081 205.586 121.645C206.289 121.202 207.057 120.98 207.891 120.98C209.271 120.98 210.312 121.495 211.016 122.523V121.156ZM208.555 128.217C209.245 128.217 209.827 127.995 210.303 127.553C210.778 127.11 211.016 126.56 211.016 125.902C211.016 125.245 210.778 124.691 210.303 124.242C209.827 123.786 209.245 123.559 208.555 123.559C207.878 123.559 207.298 123.786 206.816 124.242C206.335 124.698 206.094 125.251 206.094 125.902C206.094 126.547 206.331 127.094 206.807 127.543C207.288 127.992 207.871 128.217 208.555 128.217ZM226.143 123.861H223.73V126.957C223.73 127.465 223.883 127.846 224.189 128.1C224.502 128.354 224.915 128.48 225.43 128.48C225.703 128.48 225.941 128.454 226.143 128.402V131C225.739 131.104 225.286 131.156 224.785 131.156C223.607 131.156 222.666 130.788 221.963 130.053C221.26 129.317 220.908 128.298 220.908 126.996V123.861H219.082V121.176H220.908V118.598H223.73V121.176H226.143V123.861ZM234.531 121.176H237.354V131H234.531V129.604C233.815 130.665 232.773 131.195 231.406 131.195C230.573 131.195 229.805 130.967 229.102 130.512C228.405 130.049 227.855 129.428 227.451 128.646C227.048 127.859 226.846 127.003 226.846 126.078C226.846 125.154 227.048 124.301 227.451 123.52C227.855 122.732 228.405 122.113 229.102 121.664C229.805 121.208 230.573 120.98 231.406 120.98C232.773 120.98 233.815 121.514 234.531 122.582V121.176ZM232.07 128.5C232.76 128.5 233.343 128.269 233.818 127.807C234.294 127.338 234.531 126.762 234.531 126.078C234.531 125.401 234.294 124.828 233.818 124.359C233.343 123.891 232.76 123.656 232.07 123.656C231.393 123.656 230.814 123.894 230.332 124.369C229.85 124.838 229.609 125.408 229.609 126.078C229.609 126.755 229.847 127.328 230.322 127.797C230.804 128.266 231.387 128.5 232.07 128.5ZM243.301 131.195C242.005 131.195 240.947 130.886 240.127 130.268C239.313 129.643 238.857 128.78 238.76 127.68H241.465C241.491 128.012 241.663 128.279 241.982 128.48C242.301 128.682 242.695 128.783 243.164 128.783C243.581 128.783 243.903 128.718 244.131 128.588C244.365 128.458 244.482 128.275 244.482 128.041C244.482 127.826 244.382 127.65 244.18 127.514C243.978 127.377 243.714 127.276 243.389 127.211C243.063 127.139 242.702 127.071 242.305 127.006C241.914 126.941 241.523 126.85 241.133 126.732C240.742 126.615 240.384 126.465 240.059 126.283C239.733 126.101 239.469 125.834 239.268 125.482C239.066 125.124 238.965 124.698 238.965 124.203C238.965 123.272 239.316 122.504 240.02 121.898C240.729 121.286 241.676 120.98 242.861 120.98C243.981 120.98 244.941 121.267 245.742 121.84C246.543 122.413 247.002 123.22 247.119 124.262H244.277C244.258 124.001 244.115 123.78 243.848 123.598C243.581 123.415 243.232 123.324 242.803 123.324C242.464 123.324 242.191 123.383 241.982 123.5C241.781 123.611 241.68 123.777 241.68 123.998C241.68 124.2 241.781 124.363 241.982 124.486C242.191 124.604 242.458 124.691 242.783 124.75C243.109 124.809 243.467 124.867 243.857 124.926C244.248 124.984 244.639 125.076 245.029 125.199C245.426 125.323 245.788 125.489 246.113 125.697C246.439 125.899 246.702 126.199 246.904 126.596C247.113 126.993 247.217 127.468 247.217 128.021C247.217 128.92 246.839 129.675 246.084 130.287C245.335 130.893 244.408 131.195 243.301 131.195ZM258.691 131H255.078L251.514 126.596V131H248.691V116.996H251.514V125.238L254.912 121.176H258.379L254.297 125.922L258.691 131ZM263.496 131.195C262.201 131.195 261.143 130.886 260.322 130.268C259.508 129.643 259.053 128.78 258.955 127.68H261.66C261.686 128.012 261.859 128.279 262.178 128.48C262.497 128.682 262.891 128.783 263.359 128.783C263.776 128.783 264.098 128.718 264.326 128.588C264.561 128.458 264.678 128.275 264.678 128.041C264.678 127.826 264.577 127.65 264.375 127.514C264.173 127.377 263.91 127.276 263.584 127.211C263.258 127.139 262.897 127.071 262.5 127.006C262.109 126.941 261.719 126.85 261.328 126.732C260.938 126.615 260.579 126.465 260.254 126.283C259.928 126.101 259.665 125.834 259.463 125.482C259.261 125.124 259.16 124.698 259.16 124.203C259.16 123.272 259.512 122.504 260.215 121.898C260.924 121.286 261.872 120.98 263.057 120.98C264.176 120.98 265.137 121.267 265.938 121.84C266.738 122.413 267.197 123.22 267.314 124.262H264.473C264.453 124.001 264.31 123.78 264.043 123.598C263.776 123.415 263.428 123.324 262.998 123.324C262.66 123.324 262.386 123.383 262.178 123.5C261.976 123.611 261.875 123.777 261.875 123.998C261.875 124.2 261.976 124.363 262.178 124.486C262.386 124.604 262.653 124.691 262.979 124.75C263.304 124.809 263.662 124.867 264.053 124.926C264.443 124.984 264.834 125.076 265.225 125.199C265.622 125.323 265.983 125.489 266.309 125.697C266.634 125.899 266.898 126.199 267.1 126.596C267.308 126.993 267.412 127.468 267.412 128.021C267.412 128.92 267.035 129.675 266.279 130.287C265.531 130.893 264.603 131.195 263.496 131.195Z" fill="#9E9E9E"/>
</svg>
