<svg width="15" height="18" viewBox="0 0 15 18" fill="none" xmlns="http://www.w3.org/2000/svg">
<path fill-rule="evenodd" clip-rule="evenodd" d="M9.12161 9.74163C9.36089 9.98329 9.74868 9.98329 9.98795 9.74163C10.2355 9.49996 10.2355 9.10829 9.9962 8.86663L7.62821 6.46663C7.57046 6.40829 7.50445 6.36663 7.43019 6.33329C7.35594 6.29996 7.28168 6.28329 7.19917 6.28329C7.11666 6.28329 7.03415 6.29996 6.9599 6.33329C6.88564 6.36663 6.81963 6.40829 6.76188 6.46663L4.40214 8.86663C4.16287 9.10829 4.16287 9.49996 4.40214 9.74163C4.64141 9.98329 5.0292 9.98329 5.26848 9.74163L6.58036 8.40829V12.4333C6.58036 12.775 6.85264 13.05 7.19917 13.05C7.53745 13.05 7.80973 12.775 7.80973 12.4333V8.40829L9.12161 9.74163ZM13.6071 6.5213C13.8011 6.51906 14.0122 6.51663 14.2041 6.51663C14.4104 6.51663 14.5837 6.68329 14.5837 6.89163V13.5916C14.5837 15.6583 12.917 17.3333 10.8708 17.3333H4.31138C2.15792 17.3333 0.416992 15.575 0.416992 13.4083V4.42496C0.416992 2.35829 2.07541 0.666626 4.13811 0.666626H8.54405C8.75033 0.666626 8.92359 0.841626 8.92359 1.04996V3.73329C8.92359 5.25829 10.1612 6.50829 11.6794 6.51663C12.0264 6.51663 12.3345 6.51925 12.6051 6.52155C12.8171 6.52335 13.0061 6.52496 13.1728 6.52496C13.2902 6.52496 13.4425 6.5232 13.6071 6.5213ZM13.8375 5.30496C13.1593 5.30746 12.3606 5.30496 11.7856 5.29913C10.873 5.29913 10.1214 4.53996 10.1214 3.61829V1.42163C10.1214 1.06246 10.5521 0.884126 10.7988 1.14329C11.4341 1.80987 12.4066 2.83139 13.2287 3.69486C13.5618 4.04471 13.8701 4.36862 14.1214 4.63246C14.3615 4.88496 14.1849 5.30413 13.8375 5.30496Z" fill="white"/>
</svg>
