<svg width="18" height="18" viewBox="0 0 18 18" fill="none" xmlns="http://www.w3.org/2000/svg">
<path fill-rule="evenodd" clip-rule="evenodd" d="M5.10851 0.666748H12.8835C15.7168 0.666748 17.3335 2.26675 17.3335 5.10841V12.8917C17.3335 15.7167 15.7252 17.3334 12.8918 17.3334H5.10851C2.26684 17.3334 0.66684 15.7167 0.66684 12.8917V5.10841C0.66684 2.26675 2.26684 0.666748 5.10851 0.666748ZM9.68351 9.69175H12.0502C12.4335 9.68342 12.7418 9.37508 12.7418 8.99175C12.7418 8.60842 12.4335 8.30008 12.0502 8.30008H9.68351V5.95008C9.68351 5.56675 9.37517 5.25841 8.99184 5.25841C8.60851 5.25841 8.30017 5.56675 8.30017 5.95008V8.30008H5.94184C5.75851 8.30008 5.58351 8.37508 5.45017 8.50008C5.32517 8.63342 5.25017 8.80758 5.25017 8.99175C5.25017 9.37508 5.55851 9.68342 5.94184 9.69175H8.30017V12.0501C8.30017 12.4334 8.60851 12.7417 8.99184 12.7417C9.37517 12.7417 9.68351 12.4334 9.68351 12.0501V9.69175Z" fill="white"/>
</svg>
