<svg width="28" height="28" viewBox="0 0 28 28" fill="none" xmlns="http://www.w3.org/2000/svg">
<path d="M24.4997 12.8333C24.1903 12.8333 23.8935 12.9562 23.6747 13.175C23.4559 13.3938 23.333 13.6905 23.333 13.9999C23.3469 16.1851 22.5984 18.3068 21.2163 19.9994C19.8342 21.6921 17.9051 22.8499 15.7613 23.2733C13.6175 23.6967 11.3931 23.3593 9.47126 22.3192C7.54944 21.279 6.05048 19.6013 5.23255 17.5749C4.41463 15.5485 4.32893 13.3003 4.99023 11.2175C5.65153 9.13473 7.01843 7.34774 8.8555 6.16433C10.6926 4.98091 12.8848 4.47515 15.0546 4.73415C17.2245 4.99315 19.2361 6.00069 20.743 7.58325H17.943C17.6336 7.58325 17.3368 7.70617 17.1181 7.92496C16.8993 8.14375 16.7763 8.4405 16.7763 8.74992C16.7763 9.05934 16.8993 9.35608 17.1181 9.57488C17.3368 9.79367 17.6336 9.91658 17.943 9.91658H23.228C23.5374 9.91658 23.8342 9.79367 24.053 9.57488C24.2718 9.35608 24.3947 9.05934 24.3947 8.74992V3.49992C24.3947 3.1905 24.2718 2.89375 24.053 2.67496C23.8342 2.45617 23.5374 2.33325 23.228 2.33325C22.9186 2.33325 22.6218 2.45617 22.4031 2.67496C22.1843 2.89375 22.0613 3.1905 22.0613 3.49992V5.56492C20.1185 3.70765 17.5939 2.5782 14.9144 2.36747C12.2348 2.15674 9.56475 2.87767 7.35542 4.40839C5.14609 5.93911 3.53306 8.18573 2.78898 10.7685C2.0449 13.3512 2.21542 16.1117 3.27172 18.5832C4.32802 21.0547 6.2053 23.0857 8.58622 24.3329C10.9672 25.5801 13.7057 25.9669 16.3389 25.428C18.9721 24.8891 21.3385 23.4575 23.038 21.3752C24.7375 19.2929 25.666 16.6877 25.6663 13.9999C25.6663 13.6905 25.5434 13.3938 25.3246 13.175C25.1058 12.9562 24.8091 12.8333 24.4997 12.8333Z" fill="#212121"/>
</svg>
