<svg width="44" height="44" viewBox="0 0 44 44" fill="none" xmlns="http://www.w3.org/2000/svg">
<path fill-rule="evenodd" clip-rule="evenodd" d="M15.4507 5.5C16.2207 5.5 16.8459 6.11304 16.8459 6.8699C16.8459 7.62496 16.2225 8.238 15.4507 8.238L12.4642 8.2398C9.98552 8.24339 7.96886 10.2227 7.96886 12.6551V16.0637C7.96886 16.8187 7.34186 17.4336 6.57186 17.4336C5.80186 17.4336 5.17669 16.8187 5.17669 16.0637V12.6551C5.17669 8.71441 8.44552 5.50539 12.4624 5.5018L15.4489 5.5H15.4507ZM28.601 5.50055H31.5215C35.5494 5.50055 38.8237 8.71136 38.8237 12.6611V16.0642C38.8237 16.8193 38.2004 17.4341 37.4286 17.4341C36.6586 17.4341 36.0334 16.8193 36.0334 16.0642V12.6611C36.0334 10.2215 34.0094 8.23675 31.5215 8.23675H28.601C27.831 8.23675 27.2059 7.62551 27.2059 6.87045C27.2059 6.11359 27.831 5.50055 28.601 5.50055ZM27.0645 12.3615H16.9371C14.6198 12.3849 12.7571 14.242 12.7773 16.5162V18.7993C12.7828 19.0654 13.001 19.2829 13.2723 19.2919H30.7256C30.9988 19.2847 31.217 19.0672 31.2261 18.7993V16.5162C31.228 15.4177 30.7953 14.3625 30.0143 13.5768C29.2388 12.7984 28.1736 12.3615 27.0645 12.3615ZM3.23025 22.0756H40.7714C41.5414 22.0756 42.1666 22.6886 42.1666 23.4455C42.1666 24.2006 41.5414 24.8118 40.7714 24.8118H38.8244V31.3377C38.8244 35.2892 35.5483 38.5 31.5223 38.5H28.6018C27.8299 38.5 27.2048 37.887 27.2048 37.1301C27.2048 36.375 27.8299 35.762 28.6018 35.762H31.5223C34.0101 35.762 36.0341 33.7791 36.0341 31.3377V24.8118H31.2253V26.6293C31.2436 28.9035 29.3828 30.7624 27.0636 30.784H16.9363C14.6189 30.7624 12.7581 28.9035 12.7764 26.6293V24.8118H7.96759V31.3449C7.96759 33.7773 9.98608 35.7566 12.4666 35.7602L15.4513 35.762C16.2213 35.762 16.8464 36.375 16.8464 37.1301C16.8446 37.887 16.2213 38.5 15.4494 38.5L12.4629 38.4982C8.44608 38.4946 5.17542 35.2856 5.17542 31.3449V24.8118H3.23025C2.46025 24.8118 1.83325 24.2006 1.83325 23.4455C1.83325 22.6886 2.46025 22.0756 3.23025 22.0756Z" fill="white"/>
</svg>
