<svg width="30" height="30" viewBox="0 0 30 30" fill="none" xmlns="http://www.w3.org/2000/svg">
<path d="M28.3667 1.65846C27.6581 0.931165 26.6093 0.660212 25.6314 0.945426L2.82791 7.57664C1.79616 7.86328 1.06486 8.68612 0.867861 9.73143C0.666612 10.7953 1.36957 12.1458 2.28794 12.7105L9.41811 17.0928C10.1494 17.542 11.0933 17.4293 11.6985 16.819L19.8632 8.60341C20.2742 8.17559 20.9545 8.17559 21.3655 8.60341C21.7765 9.01697 21.7765 9.68722 21.3655 10.115L13.1866 18.3321C12.58 18.941 12.4666 19.8893 12.913 20.6252L17.2697 27.8268C17.7799 28.6825 18.6586 29.1673 19.6223 29.1673C19.7357 29.1673 19.8632 29.1673 19.9766 29.1531C21.0821 29.0104 21.9607 28.2546 22.2867 27.1851L29.047 4.41077C29.3446 3.44105 29.0753 2.38575 28.3667 1.65846Z" fill="#007AFF"/>
</svg>
