<svg width="24" height="25" viewBox="0 0 24 25" fill="none" xmlns="http://www.w3.org/2000/svg">
<path fill-rule="evenodd" clip-rule="evenodd" d="M2 12.6818C2 7.41387 6.21 2.66675 12.02 2.66675C17.7 2.66675 22 7.32373 22 12.6517C22 18.831 16.96 22.6667 12 22.6667C10.36 22.6667 8.54 22.2261 7.08 21.3648C6.57 21.0543 6.14 20.824 5.59 21.0043L3.57 21.6052C3.06 21.7654 2.6 21.3648 2.75 20.824L3.42 18.5806C3.53 18.2702 3.51 17.9397 3.35 17.6793C2.49 16.0969 2 14.3643 2 12.6818ZM10.7 12.6818C10.7 13.3928 11.27 13.9637 11.98 13.9737C12.69 13.9737 13.26 13.3928 13.26 12.6918C13.26 11.9807 12.69 11.4099 11.98 11.4099C11.28 11.3998 10.7 11.9807 10.7 12.6818ZM15.31 12.6918C15.31 13.3928 15.88 13.9737 16.59 13.9737C17.3 13.9737 17.87 13.3928 17.87 12.6918C17.87 11.9807 17.3 11.4099 16.59 11.4099C15.88 11.4099 15.31 11.9807 15.31 12.6918ZM7.37 13.9737C6.67 13.9737 6.09 13.3928 6.09 12.6918C6.09 11.9807 6.66 11.4099 7.37 11.4099C8.08 11.4099 8.65 11.9807 8.65 12.6918C8.65 13.3928 8.08 13.9637 7.37 13.9737Z" fill="url(#paint0_linear_2433_29703)"/>
<defs>
<linearGradient id="paint0_linear_2433_29703" x1="22" y1="22.6667" x2="-1.7982" y2="15.7667" gradientUnits="userSpaceOnUse">
<stop stop-color="#246BFD"/>
<stop offset="1" stop-color="#5089FF"/>
</linearGradient>
</defs>
</svg>
