<svg width="21" height="20" viewBox="0 0 21 20" fill="none" xmlns="http://www.w3.org/2000/svg">
<path fill-rule="evenodd" clip-rule="evenodd" d="M15.2 2.41C15.2 1.08 16.28 0 17.61 0C18.94 0 20.02 1.08 20.02 2.41C20.02 3.74 18.94 4.82 17.61 4.82C16.28 4.82 15.2 3.74 15.2 2.41ZM11.5297 12.7593L14.4197 9.0303L14.3797 9.0503C14.5397 8.8303 14.5697 8.5503 14.4597 8.3003C14.3507 8.0503 14.1097 7.8803 13.8507 7.8603C13.5797 7.8303 13.3107 7.9503 13.1497 8.1703L10.7307 11.3003L7.95971 9.1203C7.78971 8.9903 7.58971 8.9393 7.38971 8.9603C7.19071 8.9903 7.01071 9.0993 6.88971 9.2593L3.93071 13.1103L3.86971 13.2003C3.69971 13.5193 3.77971 13.9293 4.07971 14.1503C4.21971 14.2403 4.36971 14.3003 4.53971 14.3003C4.77071 14.3103 4.98971 14.1893 5.12971 14.0003L7.63971 10.7693L10.4897 12.9103L10.5797 12.9693C10.8997 13.1393 11.2997 13.0603 11.5297 12.7593ZM13.6497 1.7803C13.6097 2.0303 13.5897 2.2803 13.5897 2.5303C13.5897 4.7803 15.4097 6.5993 17.6497 6.5993C17.8997 6.5993 18.1397 6.5703 18.3897 6.5303V14.5993C18.3897 17.9903 16.3897 20.0003 12.9897 20.0003H5.60071C2.19971 20.0003 0.199707 17.9903 0.199707 14.5993V7.2003C0.199707 3.8003 2.19971 1.7803 5.60071 1.7803H13.6497Z" fill="#007AFF"/>
</svg>
