<svg width="21" height="21" viewBox="0 0 21 21" fill="none" xmlns="http://www.w3.org/2000/svg">
<path fill-rule="evenodd" clip-rule="evenodd" d="M5.4163 14.0026C5.2563 14.0026 5.0953 13.9516 4.9593 13.8476C4.6313 13.5946 4.5693 13.1236 4.8223 12.7956L7.8153 8.90562C7.9373 8.74662 8.1183 8.64362 8.3163 8.61862C8.5183 8.59262 8.7163 8.64862 8.8733 8.77362L11.6933 10.9886L14.1603 7.80562C14.4143 7.47662 14.8843 7.41562 15.2123 7.67162C15.5403 7.92562 15.6003 8.39662 15.3463 8.72362L12.4163 12.5036C12.2943 12.6616 12.1143 12.7646 11.9163 12.7886C11.7163 12.8156 11.5183 12.7576 11.3603 12.6346L8.5423 10.4206L6.0113 13.7096C5.8633 13.9016 5.6413 14.0026 5.4163 14.0026Z" fill="#9E9E9E"/>
<mask id="mask0_7180_6629" style="mask-type:luminance" maskUnits="userSpaceOnUse" x="15" y="0" width="6" height="6">
<path fill-rule="evenodd" clip-rule="evenodd" d="M15.4953 0H20.8393V5.3449H15.4953V0Z" fill="white"/>
</mask>
<g mask="url(#mask0_7180_6629)">
<path fill-rule="evenodd" clip-rule="evenodd" d="M18.1673 1.5C17.5213 1.5 16.9953 2.025 16.9953 2.672C16.9953 3.318 17.5213 3.845 18.1673 3.845C18.8133 3.845 19.3393 3.318 19.3393 2.672C19.3393 2.025 18.8133 1.5 18.1673 1.5ZM18.1673 5.345C16.6943 5.345 15.4953 4.146 15.4953 2.672C15.4953 1.198 16.6943 0 18.1673 0C19.6413 0 20.8393 1.198 20.8393 2.672C20.8393 4.146 19.6413 5.345 18.1673 5.345Z" fill="#9E9E9E"/>
</g>
<mask id="mask1_7180_6629" style="mask-type:luminance" maskUnits="userSpaceOnUse" x="0" y="0" width="21" height="21">
<path fill-rule="evenodd" clip-rule="evenodd" d="M0.200012 0.841797H20.0619V20.7028H0.200012V0.841797Z" fill="white"/>
</mask>
<g mask="url(#mask1_7180_6629)">
<path fill-rule="evenodd" clip-rule="evenodd" d="M14.4329 20.7028H5.82892C2.46192 20.7028 0.199921 18.3378 0.199921 14.8178V6.7358C0.199921 3.2108 2.46192 0.841797 5.82892 0.841797H13.0969C13.5109 0.841797 13.8469 1.1778 13.8469 1.5918C13.8469 2.0058 13.5109 2.3418 13.0969 2.3418H5.82892C3.32092 2.3418 1.69992 4.0658 1.69992 6.7358V14.8178C1.69992 17.5228 3.28192 19.2028 5.82892 19.2028H14.4329C16.9409 19.2028 18.5619 17.4818 18.5619 14.8178V7.7788C18.5619 7.3648 18.8979 7.0288 19.3119 7.0288C19.7259 7.0288 20.0619 7.3648 20.0619 7.7788V14.8178C20.0619 18.3378 17.7999 20.7028 14.4329 20.7028Z" fill="#9E9E9E"/>
</g>
</svg>
