<svg width="301" height="300" viewBox="0 0 301 300" fill="none" xmlns="http://www.w3.org/2000/svg">
<path d="M150.631 291C149.876 291 148.87 291 148.115 290.75C147.109 290.501 138.303 289.004 125.723 283.513C118.427 280.269 110.879 276.526 103.834 272.034C95.0285 266.544 86.7258 260.056 78.9264 253.068C59.5536 235.1 44.2062 212.142 33.136 185.19C26.5946 169.468 21.8143 152 18.2919 133.533C14.518 113.319 12.7568 91.3585 12.7568 68.1502C12.7568 62.4105 16.2792 57.1699 21.5627 54.6744L123.459 10.2542C131.007 7.00998 139.561 10.2542 142.832 17.7407C146.102 25.2273 142.832 33.712 135.284 36.9562L42.6967 77.6332C43.4515 114.068 49.4897 146.01 60.3083 172.962C69.3658 195.921 82.1971 215.386 98.2992 230.608C112.389 244.084 126.729 251.82 136.039 256.063C142.328 258.808 147.612 260.305 150.631 261.303C153.65 260.305 158.934 258.558 165.224 255.314C174.784 250.822 189.125 242.337 203.466 228.362C219.568 212.641 232.4 193.176 241.457 170.217C252.276 143.764 258.062 112.57 259.069 77.6332L225.858 63.1591L152.644 191.678C150.379 195.671 146.354 198.416 141.825 198.915C137.296 199.414 132.768 197.917 129.497 194.673L91.003 156.492C85.2163 150.752 85.2163 141.518 91.003 135.779C96.7897 130.039 106.099 130.039 111.885 135.779L136.542 160.235L206.737 36.9562C210.511 30.4679 218.562 27.7228 225.606 30.7174L279.951 54.6744C285.234 56.9204 288.757 62.1609 288.757 68.1502C288.757 111.323 281.964 149.754 268.378 182.445C257.307 209.147 241.96 232.106 222.839 250.573C189.628 282.515 155.915 290.251 154.405 290.75C152.895 291 151.637 291 150.631 291Z" fill="url(#paint0_linear_2433_28435)"/>
<defs>
<linearGradient id="paint0_linear_2433_28435" x1="288.757" y1="291" x2="-40.7341" y2="197.5" gradientUnits="userSpaceOnUse">
<stop stop-color="#0FAA0C"/>
<stop offset="1" stop-color="#51D56E"/>
</linearGradient>
</defs>
</svg>
