<svg width="41" height="24" viewBox="0 0 41 24" fill="none" xmlns="http://www.w3.org/2000/svg">
<rect x="0.5" y="0.5" width="40" height="23" rx="5.5" stroke="#246BFD"/>
<path d="M13.3203 8.99805C13.9648 8.99805 14.4987 9.2015 14.9219 9.6084C15.3483 10.0153 15.5615 10.5264 15.5615 11.1416C15.5615 11.7666 15.3483 12.2826 14.9219 12.6895C14.4987 13.0964 13.9648 13.2998 13.3203 13.2998H11.8115V16H10.6396V8.99805H13.3203ZM13.3203 12.1816C13.623 12.1816 13.8753 12.0824 14.0771 11.8838C14.279 11.6852 14.3799 11.4378 14.3799 11.1416C14.3799 10.8519 14.279 10.6094 14.0771 10.4141C13.8753 10.2188 13.623 10.1211 13.3203 10.1211H11.8115V12.1816H13.3203ZM20.0877 11.1123H21.2107V16H20.0877V15.1406C19.9087 15.4499 19.6727 15.6875 19.3797 15.8535C19.0867 16.0163 18.7465 16.0977 18.3592 16.0977C17.9327 16.0977 17.5405 15.9854 17.1824 15.7607C16.8243 15.5329 16.5411 15.2236 16.3328 14.833C16.1245 14.4391 16.0203 14.0111 16.0203 13.5488C16.0203 13.0866 16.1245 12.6602 16.3328 12.2695C16.5411 11.8789 16.8243 11.5713 17.1824 11.3467C17.5405 11.1221 17.9327 11.0098 18.3592 11.0098C18.7465 11.0098 19.0867 11.0928 19.3797 11.2588C19.6727 11.4248 19.9087 11.6624 20.0877 11.9717V11.1123ZM18.5984 15.0381C19.0216 15.0381 19.3748 14.8965 19.658 14.6133C19.9445 14.3268 20.0877 13.972 20.0877 13.5488C20.0877 13.1289 19.9445 12.7773 19.658 12.4941C19.3748 12.2109 19.0216 12.0693 18.5984 12.0693C18.185 12.0693 17.8351 12.2142 17.5486 12.5039C17.2622 12.7904 17.1189 13.1387 17.1189 13.5488C17.1189 13.9655 17.2622 14.3187 17.5486 14.6084C17.8351 14.8949 18.185 15.0381 18.5984 15.0381ZM22.651 9.05176C22.791 8.91178 22.9586 8.8418 23.1539 8.8418C23.3492 8.8418 23.5169 8.91178 23.6568 9.05176C23.8001 9.19173 23.8717 9.35775 23.8717 9.5498C23.8717 9.74837 23.8001 9.91764 23.6568 10.0576C23.5169 10.1976 23.3492 10.2676 23.1539 10.2676C22.9586 10.2676 22.791 10.1976 22.651 10.0576C22.511 9.91764 22.441 9.74837 22.441 9.5498C22.441 9.35775 22.511 9.19173 22.651 9.05176ZM22.5924 11.1123H23.7008V16H22.5924V11.1123ZM28.8959 8.99805H30.0189V16H28.8959V15.1406C28.7169 15.4499 28.4809 15.6875 28.1879 15.8535C27.8949 16.0163 27.5548 16.0977 27.1674 16.0977C26.741 16.0977 26.3487 15.9854 25.9906 15.7607C25.6326 15.5329 25.3493 15.2236 25.141 14.833C24.9327 14.4391 24.8285 14.0111 24.8285 13.5488C24.8285 13.0866 24.9327 12.6602 25.141 12.2695C25.3493 11.8789 25.6326 11.5713 25.9906 11.3467C26.3487 11.1221 26.741 11.0098 27.1674 11.0098C27.5548 11.0098 27.8949 11.0928 28.1879 11.2588C28.4809 11.4248 28.7169 11.6624 28.8959 11.9717V8.99805ZM27.4066 15.0381C27.8298 15.0381 28.183 14.8965 28.4662 14.6133C28.7527 14.3268 28.8959 13.972 28.8959 13.5488C28.8959 13.1289 28.7527 12.7773 28.4662 12.4941C28.183 12.2109 27.8298 12.0693 27.4066 12.0693C26.9932 12.0693 26.6433 12.2142 26.3568 12.5039C26.0704 12.7904 25.9271 13.1387 25.9271 13.5488C25.9271 13.9655 26.0704 14.3187 26.3568 14.6084C26.6433 14.8949 26.9932 15.0381 27.4066 15.0381Z" fill="#246BFD"/>
</svg>
